%TF.GenerationSoftware,Altium Limited,Altium Designer,26.3.0 (6)*%
G04 Layer_Physical_Order=1*
G04 Layer_Color=255*
%FSLAX45Y45*%
%MOMM*%
%TF.SameCoordinates,36D5E7B7-1B4E-4C16-B99E-0A11D57F24DC*%
%TF.FilePolarity,Positive*%
%TF.FileFunction,Copper,L1,Top,Signal*%
%TF.Part,Single*%
G01*
G75*
%TA.AperFunction,SMDPad,CuDef*%
%ADD10R,1.70000X0.60000*%
%ADD11R,2.70000X1.00000*%
%ADD12R,1.00000X0.66000*%
%ADD13R,1.45000X1.25000*%
%TA.AperFunction,ConnectorPad*%
%ADD14R,1.70000X0.60000*%
%ADD15R,2.70000X1.00000*%
%TA.AperFunction,Conductor*%
%ADD16C,0.50000*%
%TA.AperFunction,ViaPad*%
%ADD17C,0.60000*%
D10*
X1900000Y500000D02*
D03*
Y375000D02*
D03*
D11*
X2220000Y685000D02*
D03*
Y190000D02*
D03*
D12*
X1380000Y545000D02*
D03*
X1120000Y450000D02*
D03*
X1380000Y355000D02*
D03*
X1120000D02*
D03*
Y545000D02*
D03*
D13*
X1600000Y565000D02*
D03*
Y400000D02*
D03*
X900000Y417500D02*
D03*
Y582500D02*
D03*
D14*
X577500Y387500D02*
D03*
Y512500D02*
D03*
D15*
X257500Y202500D02*
D03*
Y697500D02*
D03*
D16*
X1020000Y420000D02*
X1042000Y442000D01*
X1112000D01*
X1120000Y450000D01*
X727500Y387500D02*
X730000Y390000D01*
X577500Y387500D02*
X727500D01*
X900000Y310000D02*
Y417500D01*
X1600000Y290000D02*
Y400000D01*
X1752190Y375000D02*
X1900000D01*
X1722900Y404290D02*
X1752190Y375000D01*
X1722900Y404290D02*
Y483376D01*
X1900000Y500000D02*
X2050000D01*
X1600000Y565000D02*
X1637500Y527500D01*
X1678776D01*
X1722900Y483376D01*
X1588001Y553000D02*
X1600000Y565000D01*
X1388000Y553000D02*
X1588001D01*
X1380000Y545000D02*
X1388000Y553000D01*
X1120000Y355000D02*
X1128000Y363000D01*
X1187277D01*
X1220400Y396124D01*
Y503877D01*
X1187277Y537000D02*
X1220400Y503877D01*
X1128000Y537000D02*
X1187277D01*
X1120000Y545000D02*
X1128000Y537000D01*
X1050900Y582500D02*
X1100000Y533400D01*
X900000Y582500D02*
X1050900D01*
X882500Y600000D02*
X900000Y582500D01*
X800000Y600000D02*
X882500D01*
X712500Y512500D02*
X800000Y600000D01*
X577500Y512500D02*
X712500D01*
D17*
X900000Y310000D02*
D03*
X727500Y387500D02*
D03*
X1020000Y420000D02*
D03*
X1600000Y290000D02*
D03*
X2050000Y500000D02*
D03*
%TF.MD5,70ceda32459415a395b3c6645374da5f*%
M02*
