%TF.GenerationSoftware,Altium Limited,Altium Designer,26.3.0 (6)*%
G04 Layer_Color=65535*
%FSLAX45Y45*%
%MOMM*%
%TF.SameCoordinates,36D5E7B7-1B4E-4C16-B99E-0A11D57F24DC*%
%TF.FilePolarity,Positive*%
%TF.FileFunction,Legend,Top*%
%TF.Part,Single*%
G01*
G75*
%TA.AperFunction,NonConductor*%
%ADD18C,0.25000*%
%ADD19C,0.20000*%
%ADD20C,0.25400*%
G36*
X1337599Y152159D02*
X1337898D01*
Y152060D01*
X1338196D01*
Y151960D01*
X1338295D01*
Y151861D01*
X1338395D01*
Y151761D01*
X1338494D01*
Y151662D01*
X1338594D01*
Y151562D01*
X1338693D01*
Y151463D01*
X1338793D01*
Y151363D01*
X1338892D01*
Y151165D01*
X1338991D01*
Y151065D01*
X1339091D01*
Y150866D01*
X1339190D01*
Y150667D01*
X1339290D01*
Y150568D01*
X1339389D01*
Y150270D01*
X1339489D01*
Y150071D01*
X1339588D01*
Y149872D01*
X1339687D01*
Y149673D01*
X1339787D01*
Y149474D01*
X1339886D01*
Y149077D01*
X1339986D01*
Y148977D01*
X1340085D01*
Y148579D01*
X1340185D01*
Y148281D01*
X1340284D01*
Y147983D01*
X1340383D01*
Y147585D01*
X1340483D01*
Y147287D01*
X1340582D01*
Y146790D01*
X1340682D01*
Y146491D01*
X1340781D01*
Y145994D01*
X1340880D01*
Y145597D01*
X1340980D01*
Y145199D01*
X1341079D01*
Y144602D01*
X1341179D01*
Y144304D01*
X1341278D01*
Y143707D01*
X1341378D01*
Y143310D01*
X1341477D01*
Y142912D01*
X1341577D01*
Y142315D01*
X1341676D01*
Y142017D01*
X1341776D01*
Y141321D01*
X1341875D01*
Y141023D01*
X1341974D01*
Y140426D01*
X1342074D01*
Y139830D01*
X1342173D01*
Y139432D01*
X1342273D01*
Y138736D01*
X1342372D01*
Y138338D01*
X1342472D01*
Y137642D01*
X1342571D01*
Y137244D01*
X1342670D01*
Y136648D01*
X1342770D01*
Y135852D01*
X1342869D01*
Y135454D01*
X1342969D01*
Y134560D01*
X1343068D01*
Y134162D01*
X1343167D01*
Y133366D01*
X1343267D01*
Y132770D01*
X1343366D01*
Y132273D01*
X1343466D01*
Y131477D01*
X1343565D01*
Y131079D01*
X1343665D01*
Y130185D01*
X1343764D01*
Y129687D01*
X1343863D01*
Y129190D01*
X1343963D01*
Y128494D01*
X1344062D01*
Y128097D01*
X1344162D01*
Y127401D01*
X1344261D01*
Y127102D01*
X1344361D01*
Y126505D01*
X1344460D01*
Y126008D01*
X1344560D01*
Y125611D01*
X1344659D01*
Y124915D01*
X1344758D01*
Y124616D01*
X1344858D01*
Y124020D01*
X1344957D01*
Y123622D01*
X1345057D01*
Y123224D01*
X1345156D01*
Y122628D01*
X1345256D01*
Y122329D01*
X1345355D01*
Y121633D01*
X1345455D01*
Y121335D01*
X1345554D01*
Y120838D01*
X1345653D01*
Y120341D01*
X1345753D01*
Y119943D01*
X1345852D01*
Y119346D01*
X1345952D01*
Y119048D01*
X1346051D01*
Y118452D01*
X1346150D01*
Y118054D01*
X1346250D01*
Y117656D01*
X1346349D01*
Y117059D01*
X1346449D01*
Y116761D01*
X1346548D01*
Y116065D01*
X1346648D01*
Y115767D01*
X1346747D01*
Y115170D01*
X1346846D01*
Y114673D01*
X1346946D01*
Y114375D01*
X1347045D01*
Y113679D01*
X1347145D01*
Y113381D01*
X1347244D01*
Y112784D01*
X1347344D01*
Y112386D01*
X1347443D01*
Y111889D01*
X1347542D01*
Y111392D01*
X1347741D01*
Y111491D01*
X1347940D01*
Y111591D01*
X1348040D01*
Y111690D01*
X1348239D01*
Y111790D01*
X1348537D01*
Y111889D01*
X1348736D01*
Y111989D01*
X1349332D01*
Y112088D01*
X1349829D01*
Y112187D01*
X1350525D01*
Y112287D01*
X1351321D01*
Y112386D01*
X1351619D01*
Y112486D01*
X1352315D01*
Y112585D01*
X1352614D01*
Y112685D01*
X1353111D01*
Y112784D01*
X1353409D01*
Y112883D01*
X1353608D01*
Y112983D01*
X1354006D01*
Y113082D01*
X1354205D01*
Y113182D01*
X1354602D01*
Y113281D01*
X1354801D01*
Y113381D01*
X1354901D01*
Y113480D01*
X1355199D01*
Y113579D01*
X1355298D01*
Y113679D01*
X1355596D01*
Y113778D01*
X1355696D01*
Y113878D01*
X1355895D01*
Y113977D01*
X1356094D01*
Y114077D01*
X1356193D01*
Y114176D01*
X1356491D01*
Y114275D01*
X1356591D01*
Y114375D01*
X1356889D01*
Y114474D01*
X1357088D01*
Y114574D01*
X1357187D01*
Y114673D01*
X1357585D01*
Y114773D01*
X1357784D01*
Y114872D01*
X1358182D01*
Y114972D01*
X1358381D01*
Y115071D01*
X1358679D01*
Y115170D01*
X1359077D01*
Y115270D01*
X1359375D01*
Y115369D01*
X1359773D01*
Y115469D01*
X1359971D01*
Y115568D01*
X1360170D01*
Y115668D01*
X1360369D01*
Y115767D01*
X1360568D01*
Y115866D01*
X1360767D01*
Y115966D01*
X1360866D01*
Y116065D01*
X1361165D01*
Y116165D01*
X1361364D01*
Y116264D01*
X1361761D01*
Y116363D01*
X1362954D01*
Y116264D01*
X1363253D01*
Y116165D01*
X1363452D01*
Y116065D01*
X1363651D01*
Y115966D01*
X1363750D01*
Y115866D01*
X1364048D01*
Y115767D01*
X1364148D01*
Y115668D01*
X1364247D01*
Y115568D01*
X1364347D01*
Y115469D01*
X1364446D01*
Y115369D01*
X1364545D01*
Y115270D01*
X1364645D01*
Y115170D01*
X1364744D01*
Y114972D01*
X1364844D01*
Y114872D01*
X1364943D01*
Y114574D01*
X1365042D01*
Y114375D01*
X1365142D01*
Y113878D01*
X1365241D01*
Y112983D01*
X1365142D01*
Y112486D01*
X1365042D01*
Y112287D01*
X1364943D01*
Y111989D01*
X1364844D01*
Y111889D01*
X1364744D01*
Y111690D01*
X1364645D01*
Y111193D01*
X1364545D01*
Y110994D01*
X1364446D01*
Y110497D01*
X1364347D01*
Y110298D01*
X1364247D01*
Y110000D01*
X1364148D01*
Y109702D01*
X1364048D01*
Y109503D01*
X1363949D01*
Y109205D01*
X1363849D01*
Y109105D01*
X1363750D01*
Y108707D01*
X1363651D01*
Y108608D01*
X1363551D01*
Y108409D01*
X1363452D01*
Y108210D01*
X1363352D01*
Y108111D01*
X1363253D01*
Y107812D01*
X1363153D01*
Y107713D01*
X1363054D01*
Y107514D01*
X1362954D01*
Y107415D01*
X1362855D01*
Y107315D01*
X1362755D01*
Y107116D01*
X1362656D01*
Y107017D01*
X1362557D01*
Y106818D01*
X1362457D01*
Y106719D01*
X1362358D01*
Y106520D01*
X1362258D01*
Y106420D01*
X1362159D01*
Y106321D01*
X1362060D01*
Y106122D01*
X1361861D01*
Y105923D01*
X1361761D01*
Y105824D01*
X1361662D01*
Y105724D01*
X1361562D01*
Y105625D01*
X1361463D01*
Y105526D01*
X1361364D01*
Y105327D01*
X1361264D01*
Y105227D01*
X1361165D01*
Y105128D01*
X1361065D01*
Y105028D01*
X1360966D01*
Y104929D01*
X1360866D01*
Y104730D01*
X1360767D01*
Y104630D01*
X1360668D01*
Y104531D01*
X1360568D01*
Y104432D01*
X1360469D01*
Y104332D01*
X1360369D01*
Y104233D01*
X1360270D01*
Y104133D01*
X1360170D01*
Y104034D01*
X1360071D01*
Y103935D01*
X1359971D01*
Y103835D01*
X1359872D01*
Y103736D01*
X1359773D01*
Y103636D01*
X1359673D01*
Y103437D01*
X1359474D01*
Y103239D01*
X1359375D01*
Y103139D01*
X1359275D01*
Y103040D01*
X1359176D01*
Y102940D01*
X1359077D01*
Y102841D01*
X1358977D01*
Y102741D01*
X1358878D01*
Y102642D01*
X1358778D01*
Y102543D01*
X1358679D01*
Y102443D01*
X1358579D01*
Y102344D01*
X1358480D01*
Y102244D01*
X1358381D01*
Y102145D01*
X1358281D01*
Y101946D01*
X1358182D01*
Y101846D01*
X1358082D01*
Y101747D01*
X1357983D01*
Y101648D01*
X1357883D01*
Y101548D01*
X1357784D01*
Y101449D01*
X1357685D01*
Y101349D01*
X1357585D01*
Y101250D01*
X1357486D01*
Y101150D01*
X1357386D01*
Y101051D01*
X1357287D01*
Y100952D01*
X1357187D01*
Y100852D01*
X1357088D01*
Y100653D01*
X1356989D01*
Y100554D01*
X1356889D01*
Y100454D01*
X1356790D01*
Y100355D01*
X1356690D01*
Y100256D01*
X1356591D01*
Y100156D01*
X1356491D01*
Y100057D01*
X1356392D01*
Y99957D01*
X1356292D01*
Y99858D01*
X1356193D01*
Y99758D01*
X1356094D01*
Y99659D01*
X1355994D01*
Y99560D01*
X1355895D01*
Y99460D01*
X1355795D01*
Y99361D01*
X1355696D01*
Y99261D01*
X1355596D01*
Y99162D01*
X1355497D01*
Y99062D01*
X1355398D01*
Y98963D01*
X1355298D01*
Y98864D01*
X1355199D01*
Y98764D01*
X1355099D01*
Y98665D01*
X1355000D01*
Y98565D01*
X1354901D01*
Y98466D01*
X1354801D01*
Y98366D01*
X1354702D01*
Y98267D01*
X1354602D01*
Y98167D01*
X1354503D01*
Y98068D01*
X1354403D01*
Y97969D01*
X1354304D01*
Y97869D01*
X1354205D01*
Y97770D01*
X1354105D01*
Y97670D01*
X1354006D01*
Y97571D01*
X1353906D01*
Y97471D01*
X1353807D01*
Y97372D01*
X1353707D01*
Y97273D01*
X1353608D01*
Y97173D01*
X1353508D01*
Y97074D01*
X1353409D01*
Y96974D01*
X1353309D01*
Y96875D01*
X1353210D01*
Y96776D01*
X1353111D01*
Y96676D01*
X1353011D01*
Y96577D01*
X1352912D01*
Y96477D01*
X1352812D01*
Y96378D01*
X1352713D01*
Y96278D01*
X1352614D01*
Y96179D01*
X1352514D01*
Y96080D01*
X1352415D01*
Y95980D01*
X1352315D01*
Y95881D01*
X1352216D01*
Y95781D01*
X1352116D01*
Y95682D01*
X1352017D01*
Y95582D01*
X1351918D01*
Y95483D01*
X1351818D01*
Y95284D01*
X1351719D01*
Y95184D01*
X1351619D01*
Y95085D01*
X1351520D01*
Y94986D01*
X1351420D01*
Y94886D01*
X1351321D01*
Y94787D01*
X1351222D01*
Y94687D01*
X1351122D01*
Y94588D01*
X1351023D01*
Y94489D01*
X1350923D01*
Y94389D01*
X1350824D01*
Y94290D01*
X1350724D01*
Y94190D01*
X1350625D01*
Y94091D01*
X1350525D01*
Y93693D01*
X1350625D01*
Y93097D01*
X1350724D01*
Y92898D01*
X1350824D01*
Y92400D01*
X1350923D01*
Y92102D01*
X1351023D01*
Y91804D01*
X1351122D01*
Y91108D01*
X1351222D01*
Y90611D01*
X1351321D01*
Y89616D01*
X1351420D01*
Y89020D01*
X1351918D01*
Y89119D01*
X1352315D01*
Y89219D01*
X1352614D01*
Y89318D01*
X1353011D01*
Y89417D01*
X1353309D01*
Y89517D01*
X1353608D01*
Y89616D01*
X1354006D01*
Y89716D01*
X1354205D01*
Y89815D01*
X1354602D01*
Y89915D01*
X1354901D01*
Y90014D01*
X1355199D01*
Y90114D01*
X1355596D01*
Y90213D01*
X1355895D01*
Y90312D01*
X1356392D01*
Y90412D01*
X1356591D01*
Y90511D01*
X1356989D01*
Y90611D01*
X1357386D01*
Y90710D01*
X1357585D01*
Y90810D01*
X1358082D01*
Y90909D01*
X1358381D01*
Y91008D01*
X1358778D01*
Y91108D01*
X1359077D01*
Y91207D01*
X1359275D01*
Y91307D01*
X1359773D01*
Y91406D01*
X1359971D01*
Y91506D01*
X1360469D01*
Y91605D01*
X1360668D01*
Y91704D01*
X1361065D01*
Y91804D01*
X1361364D01*
Y91903D01*
X1361662D01*
Y92003D01*
X1362159D01*
Y92102D01*
X1362358D01*
Y92201D01*
X1362855D01*
Y92301D01*
X1363153D01*
Y92400D01*
X1363452D01*
Y92500D01*
X1363949D01*
Y92599D01*
X1364148D01*
Y92699D01*
X1364645D01*
Y92798D01*
X1364943D01*
Y92898D01*
X1365341D01*
Y92997D01*
X1365639D01*
Y93097D01*
X1365937D01*
Y93196D01*
X1366435D01*
Y93295D01*
X1366733D01*
Y93395D01*
X1367131D01*
Y93494D01*
X1367429D01*
Y93594D01*
X1367628D01*
Y93693D01*
X1368025D01*
Y93793D01*
X1368324D01*
Y93892D01*
X1368721D01*
Y93991D01*
X1368920D01*
Y94091D01*
X1369219D01*
Y94190D01*
X1369417D01*
Y94290D01*
X1369616D01*
Y94389D01*
X1370014D01*
Y94489D01*
X1370114D01*
Y94588D01*
X1370412D01*
Y94687D01*
X1370611D01*
Y94787D01*
X1370810D01*
Y94886D01*
X1371108D01*
Y94986D01*
X1371406D01*
Y95085D01*
X1372699D01*
Y94986D01*
X1372898D01*
Y94886D01*
X1373097D01*
Y94787D01*
X1373295D01*
Y94687D01*
X1373395D01*
Y94588D01*
X1373494D01*
Y94489D01*
X1373594D01*
Y94389D01*
X1373693D01*
Y94290D01*
X1373793D01*
Y94091D01*
X1373892D01*
Y93991D01*
X1373991D01*
Y93693D01*
X1374091D01*
Y93494D01*
X1374190D01*
Y92301D01*
X1374091D01*
Y92102D01*
X1373991D01*
Y91804D01*
X1373892D01*
Y91704D01*
X1373793D01*
Y91605D01*
X1373693D01*
Y91506D01*
X1373594D01*
Y91406D01*
X1373494D01*
Y91307D01*
X1373395D01*
Y91207D01*
X1373295D01*
Y91108D01*
X1373196D01*
Y91008D01*
X1372997D01*
Y90909D01*
X1372798D01*
Y90810D01*
X1372500D01*
Y90710D01*
X1372301D01*
Y90611D01*
X1372003D01*
Y90511D01*
X1371704D01*
Y90412D01*
X1371605D01*
Y90312D01*
X1371207D01*
Y90213D01*
X1371008D01*
Y90114D01*
X1370710D01*
Y90014D01*
X1370412D01*
Y89915D01*
X1370213D01*
Y89815D01*
X1369815D01*
Y89716D01*
X1369616D01*
Y89616D01*
X1369219D01*
Y89517D01*
X1368920D01*
Y89417D01*
X1368523D01*
Y89318D01*
X1368224D01*
Y89219D01*
X1367926D01*
Y89119D01*
X1367429D01*
Y89020D01*
X1367230D01*
Y88920D01*
X1366634D01*
Y88821D01*
X1366335D01*
Y88721D01*
X1366037D01*
Y88622D01*
X1365540D01*
Y88523D01*
X1365341D01*
Y88423D01*
X1364844D01*
Y88324D01*
X1364545D01*
Y88224D01*
X1364148D01*
Y88125D01*
X1363849D01*
Y88025D01*
X1363551D01*
Y87926D01*
X1363054D01*
Y87827D01*
X1362855D01*
Y87727D01*
X1362358D01*
Y87628D01*
X1362159D01*
Y87528D01*
X1361861D01*
Y87429D01*
X1361463D01*
Y87330D01*
X1361364D01*
Y87230D01*
X1360866D01*
Y87131D01*
X1360668D01*
Y87031D01*
X1360270D01*
Y86932D01*
X1359971D01*
Y86832D01*
X1359673D01*
Y86733D01*
X1359275D01*
Y86634D01*
X1359077D01*
Y86534D01*
X1358679D01*
Y86435D01*
X1358381D01*
Y86335D01*
X1358082D01*
Y86236D01*
X1357685D01*
Y86136D01*
X1357486D01*
Y86037D01*
X1357088D01*
Y85937D01*
X1356889D01*
Y85838D01*
X1356491D01*
Y85738D01*
X1356193D01*
Y85639D01*
X1355994D01*
Y85540D01*
X1355596D01*
Y85440D01*
X1355398D01*
Y85341D01*
X1355000D01*
Y85241D01*
X1354702D01*
Y85142D01*
X1354403D01*
Y85043D01*
X1354105D01*
Y84943D01*
X1353807D01*
Y84844D01*
X1353409D01*
Y84744D01*
X1353210D01*
Y84645D01*
X1352912D01*
Y84545D01*
X1352614D01*
Y84446D01*
X1352315D01*
Y84347D01*
X1351918D01*
Y84247D01*
X1351719D01*
Y84148D01*
X1351321D01*
Y84048D01*
X1351122D01*
Y83949D01*
X1350824D01*
Y83849D01*
X1350426D01*
Y83750D01*
X1350227D01*
Y83651D01*
X1349829D01*
Y83551D01*
X1349631D01*
Y83452D01*
X1349332D01*
Y83352D01*
X1349034D01*
Y83253D01*
X1348835D01*
Y83153D01*
X1348537D01*
Y83054D01*
X1348338D01*
Y82954D01*
X1348040D01*
Y82855D01*
X1347841D01*
Y82755D01*
X1347542D01*
Y82656D01*
X1347244D01*
Y82557D01*
X1347045D01*
Y82457D01*
X1346747D01*
Y82358D01*
X1346548D01*
Y82258D01*
X1346349D01*
Y82159D01*
X1346051D01*
Y82060D01*
X1345852D01*
Y81960D01*
X1345554D01*
Y81861D01*
X1345355D01*
Y81761D01*
X1345057D01*
Y81662D01*
X1344858D01*
Y81562D01*
X1344659D01*
Y81463D01*
X1344361D01*
Y81364D01*
X1344162D01*
Y81264D01*
X1343863D01*
Y81165D01*
X1343665D01*
Y81065D01*
X1343366D01*
Y80966D01*
X1343167D01*
Y80866D01*
X1342969D01*
Y80767D01*
X1342670D01*
Y80668D01*
X1342472D01*
Y80568D01*
X1342173D01*
Y80469D01*
X1341974D01*
Y80369D01*
X1341676D01*
Y80270D01*
X1341278D01*
Y80170D01*
X1341079D01*
Y80071D01*
X1340582D01*
Y79971D01*
X1339687D01*
Y79872D01*
X1338793D01*
Y79971D01*
X1338196D01*
Y80071D01*
X1337301D01*
Y80170D01*
X1337102D01*
Y80270D01*
X1336704D01*
Y80369D01*
X1336406D01*
Y80469D01*
X1336207D01*
Y80568D01*
X1336009D01*
Y80668D01*
X1335909D01*
Y80767D01*
X1335710D01*
Y80866D01*
X1335611D01*
Y80966D01*
X1335511D01*
Y81065D01*
X1335412D01*
Y81165D01*
X1335312D01*
Y81364D01*
X1335213D01*
Y81463D01*
X1335113D01*
Y81662D01*
X1335014D01*
Y81861D01*
X1334915D01*
Y82159D01*
X1334815D01*
Y82855D01*
X1334716D01*
Y83352D01*
X1334815D01*
Y84347D01*
X1334915D01*
Y84844D01*
X1335014D01*
Y85043D01*
X1335113D01*
Y85341D01*
X1335213D01*
Y85440D01*
X1335312D01*
Y85738D01*
X1335412D01*
Y85838D01*
X1335511D01*
Y85937D01*
X1335611D01*
Y86136D01*
X1335710D01*
Y86236D01*
X1335810D01*
Y86335D01*
X1335909D01*
Y86435D01*
X1336009D01*
Y86534D01*
X1336108D01*
Y86733D01*
X1336307D01*
Y86932D01*
X1336406D01*
Y87031D01*
X1336506D01*
Y87131D01*
X1336605D01*
Y87230D01*
X1336704D01*
Y87330D01*
X1336804D01*
Y87429D01*
X1336903D01*
Y87528D01*
X1337003D01*
Y87628D01*
X1337102D01*
Y87727D01*
X1337202D01*
Y87827D01*
X1337301D01*
Y87926D01*
X1337400D01*
Y88025D01*
X1337500D01*
Y88125D01*
X1337599D01*
Y88224D01*
X1337699D01*
Y88324D01*
X1337798D01*
Y88423D01*
X1337898D01*
Y88523D01*
X1337997D01*
Y88622D01*
X1338096D01*
Y88721D01*
X1338196D01*
Y88821D01*
X1338295D01*
Y88920D01*
X1338395D01*
Y89020D01*
X1338494D01*
Y89119D01*
X1338594D01*
Y89219D01*
X1338693D01*
Y89318D01*
X1338793D01*
Y89417D01*
X1338892D01*
Y89517D01*
X1338991D01*
Y89616D01*
X1339091D01*
Y89716D01*
X1339190D01*
Y89815D01*
X1339290D01*
Y89915D01*
X1339389D01*
Y90114D01*
X1339588D01*
Y90312D01*
X1339687D01*
Y90412D01*
X1339787D01*
Y90511D01*
X1339886D01*
Y90611D01*
X1339986D01*
Y90710D01*
X1340085D01*
Y90810D01*
X1340185D01*
Y90909D01*
X1340284D01*
Y91008D01*
X1340383D01*
Y91108D01*
X1340483D01*
Y91207D01*
X1340582D01*
Y91307D01*
X1340682D01*
Y91406D01*
X1340781D01*
Y91506D01*
X1340880D01*
Y91605D01*
X1340980D01*
Y91704D01*
X1341079D01*
Y91804D01*
X1341179D01*
Y91903D01*
X1341278D01*
Y92003D01*
X1341378D01*
Y92102D01*
X1341477D01*
Y92201D01*
X1341577D01*
Y92301D01*
X1341676D01*
Y92400D01*
X1341776D01*
Y92500D01*
X1341875D01*
Y92599D01*
X1341974D01*
Y92699D01*
X1342074D01*
Y92898D01*
X1342173D01*
Y92997D01*
X1342273D01*
Y93097D01*
X1342372D01*
Y93196D01*
X1342472D01*
Y93295D01*
X1342571D01*
Y93395D01*
X1342670D01*
Y93494D01*
X1342770D01*
Y93594D01*
X1342869D01*
Y93693D01*
X1342969D01*
Y93793D01*
X1343068D01*
Y93892D01*
X1343167D01*
Y93991D01*
X1343267D01*
Y94091D01*
X1343366D01*
Y94190D01*
X1343466D01*
Y94290D01*
X1343565D01*
Y94389D01*
X1343665D01*
Y94489D01*
X1343764D01*
Y94588D01*
X1343863D01*
Y94687D01*
X1343963D01*
Y94787D01*
X1344062D01*
Y94886D01*
X1344162D01*
Y94986D01*
X1344261D01*
Y95085D01*
X1344361D01*
Y95284D01*
X1344460D01*
Y95483D01*
X1344361D01*
Y95781D01*
X1344261D01*
Y95980D01*
X1344162D01*
Y96278D01*
X1344062D01*
Y96378D01*
X1343963D01*
Y96676D01*
X1343863D01*
Y96875D01*
X1343764D01*
Y96974D01*
X1343665D01*
Y97273D01*
X1343565D01*
Y97471D01*
X1343466D01*
Y97770D01*
X1343366D01*
Y97869D01*
X1343267D01*
Y98068D01*
X1343167D01*
Y98366D01*
X1343068D01*
Y98466D01*
X1342969D01*
Y98764D01*
X1342869D01*
Y98864D01*
X1342770D01*
Y99162D01*
X1342670D01*
Y99261D01*
X1342571D01*
Y99460D01*
X1342472D01*
Y99659D01*
X1342372D01*
Y99758D01*
X1342273D01*
Y100057D01*
X1342173D01*
Y100156D01*
X1342074D01*
Y100355D01*
X1341974D01*
Y100454D01*
X1341875D01*
Y100653D01*
X1341776D01*
Y100852D01*
X1341676D01*
Y100952D01*
X1341577D01*
Y101150D01*
X1341477D01*
Y101250D01*
X1341378D01*
Y101349D01*
X1341278D01*
Y101548D01*
X1341179D01*
Y101648D01*
X1341079D01*
Y101846D01*
X1340980D01*
Y101946D01*
X1340880D01*
Y102045D01*
X1340781D01*
Y102244D01*
X1340682D01*
Y102344D01*
X1340582D01*
Y102443D01*
X1340483D01*
Y102543D01*
X1340383D01*
Y102741D01*
X1340284D01*
Y102841D01*
X1340185D01*
Y102940D01*
X1340085D01*
Y103139D01*
X1339986D01*
Y103239D01*
X1339886D01*
Y103338D01*
X1339787D01*
Y103437D01*
X1339687D01*
Y103537D01*
X1339588D01*
Y103636D01*
X1339489D01*
Y103736D01*
X1339389D01*
Y103835D01*
X1339290D01*
Y103935D01*
X1339190D01*
Y104133D01*
X1339091D01*
Y104233D01*
X1338991D01*
Y104332D01*
X1338892D01*
Y104432D01*
X1338793D01*
Y104531D01*
X1338693D01*
Y104630D01*
X1338594D01*
Y104730D01*
X1338494D01*
Y104829D01*
X1338395D01*
Y104929D01*
X1338295D01*
Y105028D01*
X1338196D01*
Y105227D01*
X1338096D01*
Y105327D01*
X1337997D01*
Y105426D01*
X1337898D01*
Y105526D01*
X1337798D01*
Y105625D01*
X1337699D01*
Y105724D01*
X1337599D01*
Y105824D01*
X1337500D01*
Y105923D01*
X1337400D01*
Y106023D01*
X1337301D01*
Y106122D01*
X1337202D01*
Y106222D01*
X1337102D01*
Y106321D01*
X1337003D01*
Y106420D01*
X1336903D01*
Y106520D01*
X1336804D01*
Y106619D01*
X1336704D01*
Y106719D01*
X1336605D01*
Y106818D01*
X1336506D01*
Y106917D01*
X1336406D01*
Y107017D01*
X1336207D01*
Y107216D01*
X1336009D01*
Y107315D01*
X1335909D01*
Y107415D01*
X1335810D01*
Y107514D01*
X1335710D01*
Y107613D01*
X1335611D01*
Y107713D01*
X1335412D01*
Y107812D01*
X1335312D01*
Y107912D01*
X1335213D01*
Y108011D01*
X1335014D01*
Y108111D01*
X1334915D01*
Y108210D01*
X1334716D01*
Y108310D01*
X1334616D01*
Y108409D01*
X1334517D01*
Y108509D01*
X1334417D01*
Y108608D01*
X1334219D01*
Y108707D01*
X1334119D01*
Y108807D01*
X1334020D01*
Y108906D01*
X1333821D01*
Y109006D01*
X1333721D01*
Y109105D01*
X1333622D01*
Y109205D01*
X1333423D01*
Y109304D01*
X1333324D01*
Y109403D01*
X1333125D01*
Y109503D01*
X1333026D01*
Y109602D01*
X1332827D01*
Y109702D01*
X1332727D01*
Y109801D01*
X1332528D01*
Y109900D01*
X1332330D01*
Y110000D01*
X1332230D01*
Y110099D01*
X1332031D01*
Y110199D01*
X1331932D01*
Y110298D01*
X1331733D01*
Y110398D01*
X1331534D01*
Y110497D01*
X1331434D01*
Y110596D01*
X1331236D01*
Y110696D01*
X1331136D01*
Y110795D01*
X1330937D01*
Y110895D01*
X1330739D01*
Y110994D01*
X1330639D01*
Y111094D01*
X1330341D01*
Y110994D01*
X1330241D01*
Y110895D01*
X1330142D01*
Y110596D01*
X1330043D01*
Y110298D01*
X1329943D01*
Y110099D01*
X1329844D01*
Y109702D01*
X1329744D01*
Y109503D01*
X1329645D01*
Y109205D01*
X1329545D01*
Y109006D01*
X1329446D01*
Y108807D01*
X1329347D01*
Y108509D01*
X1329247D01*
Y108310D01*
X1329148D01*
Y108011D01*
X1329048D01*
Y107812D01*
X1328949D01*
Y107514D01*
X1328849D01*
Y107315D01*
X1328750D01*
Y107116D01*
X1328650D01*
Y106818D01*
X1328551D01*
Y106619D01*
X1328451D01*
Y106321D01*
X1328352D01*
Y106122D01*
X1328253D01*
Y105923D01*
X1328153D01*
Y105625D01*
X1328054D01*
Y105526D01*
X1327954D01*
Y105128D01*
X1327855D01*
Y105028D01*
X1327756D01*
Y104730D01*
X1327656D01*
Y104531D01*
X1327557D01*
Y104332D01*
X1327457D01*
Y104034D01*
X1327358D01*
Y103835D01*
X1327258D01*
Y103537D01*
X1327159D01*
Y103338D01*
X1327060D01*
Y103139D01*
X1326960D01*
Y102841D01*
X1326861D01*
Y102741D01*
X1326761D01*
Y102344D01*
X1326662D01*
Y102145D01*
X1326562D01*
Y101946D01*
X1326463D01*
Y101648D01*
X1326364D01*
Y101548D01*
X1326264D01*
Y101150D01*
X1326165D01*
Y101051D01*
X1326065D01*
Y100753D01*
X1325966D01*
Y100554D01*
X1325866D01*
Y100355D01*
X1325767D01*
Y100057D01*
X1325667D01*
Y99858D01*
X1325568D01*
Y99560D01*
X1325469D01*
Y99460D01*
X1325369D01*
Y99162D01*
X1325270D01*
Y98963D01*
X1325170D01*
Y98764D01*
X1325071D01*
Y98466D01*
X1324971D01*
Y98366D01*
X1324872D01*
Y98068D01*
X1324773D01*
Y97869D01*
X1324673D01*
Y97770D01*
X1324574D01*
Y97471D01*
X1324474D01*
Y97273D01*
X1324375D01*
Y97074D01*
X1324275D01*
Y96875D01*
X1324176D01*
Y96676D01*
X1324077D01*
Y96477D01*
X1323977D01*
Y96378D01*
X1323878D01*
Y96080D01*
X1323778D01*
Y95980D01*
X1323679D01*
Y95682D01*
X1323580D01*
Y95483D01*
X1323480D01*
Y95383D01*
X1323381D01*
Y95085D01*
X1323281D01*
Y94986D01*
X1323182D01*
Y94687D01*
X1323082D01*
Y94588D01*
X1322983D01*
Y94389D01*
X1322883D01*
Y94091D01*
X1322784D01*
Y93991D01*
X1322685D01*
Y93693D01*
X1322585D01*
Y93594D01*
X1322486D01*
Y93395D01*
X1322386D01*
Y93196D01*
X1322287D01*
Y92997D01*
X1322187D01*
Y92798D01*
X1322088D01*
Y92599D01*
X1321988D01*
Y92400D01*
X1321889D01*
Y92301D01*
X1321790D01*
Y92102D01*
X1321690D01*
Y91903D01*
X1321591D01*
Y91704D01*
X1321491D01*
Y91506D01*
X1321392D01*
Y91406D01*
X1321293D01*
Y91207D01*
X1321193D01*
Y91008D01*
X1321094D01*
Y90909D01*
X1320994D01*
Y90710D01*
X1320895D01*
Y90611D01*
X1320795D01*
Y90412D01*
X1320696D01*
Y90312D01*
X1320597D01*
Y90213D01*
X1320497D01*
Y90014D01*
X1320398D01*
Y89915D01*
X1320298D01*
Y89716D01*
X1320199D01*
Y89616D01*
X1320099D01*
Y89517D01*
X1320000D01*
Y89417D01*
X1319901D01*
Y89318D01*
X1319801D01*
Y89119D01*
X1319602D01*
Y88920D01*
X1319503D01*
Y88821D01*
X1319403D01*
Y88721D01*
X1319304D01*
Y88622D01*
X1319204D01*
Y88523D01*
X1319105D01*
Y88423D01*
X1319005D01*
Y88324D01*
X1318906D01*
Y88224D01*
X1318807D01*
Y88125D01*
X1318707D01*
Y88025D01*
X1318608D01*
Y87926D01*
X1318508D01*
Y87827D01*
X1318409D01*
Y87727D01*
X1318310D01*
Y87628D01*
X1318210D01*
Y87528D01*
X1318111D01*
Y87429D01*
X1318011D01*
Y87330D01*
X1317912D01*
Y87230D01*
X1317812D01*
Y87131D01*
X1317713D01*
Y87031D01*
X1317614D01*
Y86932D01*
X1317514D01*
Y86832D01*
X1317415D01*
Y86733D01*
X1317315D01*
Y86634D01*
X1317216D01*
Y86534D01*
X1317116D01*
Y86435D01*
X1317017D01*
Y86335D01*
X1316918D01*
Y86236D01*
X1316818D01*
Y86136D01*
X1316719D01*
Y86037D01*
X1316619D01*
Y85937D01*
X1316520D01*
Y85838D01*
X1316420D01*
Y85738D01*
X1316321D01*
Y85639D01*
X1316221D01*
Y85540D01*
X1316023D01*
Y85341D01*
X1315824D01*
Y85241D01*
X1315724D01*
Y85142D01*
X1315625D01*
Y85043D01*
X1315525D01*
Y84943D01*
X1315426D01*
Y84844D01*
X1315327D01*
Y84744D01*
X1315227D01*
Y84645D01*
X1315028D01*
Y84545D01*
X1314929D01*
Y84446D01*
X1314829D01*
Y84347D01*
X1314730D01*
Y84247D01*
X1314631D01*
Y84148D01*
X1314432D01*
Y84048D01*
X1314332D01*
Y83949D01*
X1314233D01*
Y83849D01*
X1314034D01*
Y83750D01*
X1313935D01*
Y83651D01*
X1313736D01*
Y83551D01*
X1313636D01*
Y83452D01*
X1313437D01*
Y83352D01*
X1313338D01*
Y83253D01*
X1313139D01*
Y83153D01*
X1312940D01*
Y83054D01*
X1312841D01*
Y82954D01*
X1312642D01*
Y82855D01*
X1312443D01*
Y82755D01*
X1312244D01*
Y82656D01*
X1312045D01*
Y82557D01*
X1311846D01*
Y82457D01*
X1311548D01*
Y82358D01*
X1311449D01*
Y82258D01*
X1311151D01*
Y82159D01*
X1310852D01*
Y82060D01*
X1310554D01*
Y81960D01*
X1310057D01*
Y81861D01*
X1309659D01*
Y81761D01*
X1308864D01*
Y81662D01*
X1308267D01*
Y81562D01*
X1307670D01*
Y81463D01*
X1306378D01*
Y81364D01*
X1305185D01*
Y81264D01*
X1300909D01*
Y81364D01*
X1299815D01*
Y81463D01*
X1297827D01*
Y81562D01*
X1296733D01*
Y81662D01*
X1295937D01*
Y81761D01*
X1294645D01*
Y81861D01*
X1294048D01*
Y81960D01*
X1292656D01*
Y82060D01*
X1291960D01*
Y82159D01*
X1291165D01*
Y82258D01*
X1290270D01*
Y82358D01*
X1289872D01*
Y82457D01*
X1289077D01*
Y82557D01*
X1288679D01*
Y82656D01*
X1288281D01*
Y82755D01*
X1287883D01*
Y82855D01*
X1287585D01*
Y82954D01*
X1287187D01*
Y83054D01*
X1286989D01*
Y83153D01*
X1286591D01*
Y83253D01*
X1286392D01*
Y83352D01*
X1286094D01*
Y83452D01*
X1285795D01*
Y83551D01*
X1285597D01*
Y83651D01*
X1285298D01*
Y83750D01*
X1285199D01*
Y83849D01*
X1284900D01*
Y83949D01*
X1284702D01*
Y84048D01*
X1284503D01*
Y84148D01*
X1284304D01*
Y84247D01*
X1284105D01*
Y84347D01*
X1283906D01*
Y84446D01*
X1283807D01*
Y84545D01*
X1283608D01*
Y84645D01*
X1283310D01*
Y84744D01*
X1283210D01*
Y84844D01*
X1283111D01*
Y84943D01*
X1283011D01*
Y85043D01*
X1282912D01*
Y85142D01*
X1282813D01*
Y85341D01*
X1282713D01*
Y85440D01*
X1282614D01*
Y85639D01*
X1282514D01*
Y85738D01*
X1282415D01*
Y86037D01*
X1282315D01*
Y86435D01*
X1282216D01*
Y87330D01*
X1282315D01*
Y87727D01*
X1282415D01*
Y88025D01*
X1282514D01*
Y88125D01*
X1282614D01*
Y88324D01*
X1282713D01*
Y88423D01*
X1282813D01*
Y88622D01*
X1282912D01*
Y88721D01*
X1283011D01*
Y88821D01*
X1283111D01*
Y88920D01*
X1283210D01*
Y89020D01*
X1283310D01*
Y89119D01*
X1283508D01*
Y89219D01*
X1283707D01*
Y89318D01*
X1284006D01*
Y89417D01*
X1284304D01*
Y89517D01*
X1284900D01*
Y89616D01*
X1285000D01*
Y89517D01*
X1285497D01*
Y89417D01*
X1285895D01*
Y89318D01*
X1286094D01*
Y89219D01*
X1286293D01*
Y89119D01*
X1286591D01*
Y89020D01*
X1286690D01*
Y88920D01*
X1286989D01*
Y88821D01*
X1287287D01*
Y88721D01*
X1287486D01*
Y88622D01*
X1287784D01*
Y88523D01*
X1287883D01*
Y88423D01*
X1288281D01*
Y88324D01*
X1288480D01*
Y88224D01*
X1288778D01*
Y88125D01*
X1289077D01*
Y88025D01*
X1289375D01*
Y87926D01*
X1289972D01*
Y87827D01*
X1290369D01*
Y87727D01*
X1291463D01*
Y87628D01*
X1292557D01*
Y87528D01*
X1293949D01*
Y87429D01*
X1295142D01*
Y87330D01*
X1295639D01*
Y87230D01*
X1296633D01*
Y87131D01*
X1297131D01*
Y87031D01*
X1297827D01*
Y86932D01*
X1298920D01*
Y86832D01*
X1300014D01*
Y86733D01*
X1301804D01*
Y86634D01*
X1302599D01*
Y86534D01*
X1304290D01*
Y86634D01*
X1305483D01*
Y86733D01*
X1307074D01*
Y86832D01*
X1307670D01*
Y86932D01*
X1308068D01*
Y87031D01*
X1308466D01*
Y87131D01*
X1308665D01*
Y87230D01*
X1309062D01*
Y87330D01*
X1309261D01*
Y87429D01*
X1309559D01*
Y87528D01*
X1309758D01*
Y87628D01*
X1309957D01*
Y87727D01*
X1310156D01*
Y87827D01*
X1310256D01*
Y87926D01*
X1310554D01*
Y88025D01*
X1310653D01*
Y88125D01*
X1310753D01*
Y88224D01*
X1310952D01*
Y88324D01*
X1311051D01*
Y88423D01*
X1311250D01*
Y88523D01*
X1311349D01*
Y88622D01*
X1311449D01*
Y88721D01*
X1311648D01*
Y88821D01*
X1311747D01*
Y88920D01*
X1311946D01*
Y89020D01*
X1312045D01*
Y89119D01*
X1312145D01*
Y89219D01*
X1312244D01*
Y89318D01*
X1312344D01*
Y89417D01*
X1312443D01*
Y89517D01*
X1312642D01*
Y89616D01*
X1312741D01*
Y89716D01*
X1312841D01*
Y89815D01*
X1312940D01*
Y89915D01*
X1313040D01*
Y90014D01*
X1313139D01*
Y90114D01*
X1313338D01*
Y90312D01*
X1313537D01*
Y90412D01*
X1313636D01*
Y90511D01*
X1313736D01*
Y90611D01*
X1313835D01*
Y90710D01*
X1313935D01*
Y90810D01*
X1314034D01*
Y90909D01*
X1314134D01*
Y91008D01*
X1314233D01*
Y91108D01*
X1314332D01*
Y91307D01*
X1314432D01*
Y91406D01*
X1314531D01*
Y91506D01*
X1314631D01*
Y91605D01*
X1314730D01*
Y91704D01*
X1314829D01*
Y91903D01*
X1314929D01*
Y92003D01*
X1315028D01*
Y92102D01*
X1315128D01*
Y92201D01*
X1315227D01*
Y92400D01*
X1315327D01*
Y92500D01*
X1315426D01*
Y92599D01*
X1315525D01*
Y92798D01*
X1315625D01*
Y92898D01*
X1315724D01*
Y92997D01*
X1315824D01*
Y93196D01*
X1315923D01*
Y93295D01*
X1316023D01*
Y93395D01*
X1316122D01*
Y93494D01*
X1316221D01*
Y93693D01*
X1316321D01*
Y93892D01*
X1316420D01*
Y93991D01*
X1316520D01*
Y94091D01*
X1316619D01*
Y94290D01*
X1316719D01*
Y94489D01*
X1316818D01*
Y94588D01*
X1316918D01*
Y94687D01*
X1317017D01*
Y94886D01*
X1317116D01*
Y94986D01*
X1317216D01*
Y95184D01*
X1317315D01*
Y95284D01*
X1317415D01*
Y95483D01*
X1317514D01*
Y95682D01*
X1317614D01*
Y95781D01*
X1317713D01*
Y95980D01*
X1317812D01*
Y96080D01*
X1317912D01*
Y96278D01*
X1318011D01*
Y96477D01*
X1318111D01*
Y96676D01*
X1318210D01*
Y96776D01*
X1318310D01*
Y96875D01*
X1318409D01*
Y97173D01*
X1318508D01*
Y97273D01*
X1318608D01*
Y97471D01*
X1318707D01*
Y97571D01*
X1318807D01*
Y97770D01*
X1318906D01*
Y97969D01*
X1319005D01*
Y98068D01*
X1319105D01*
Y98267D01*
X1319204D01*
Y98466D01*
X1319304D01*
Y98665D01*
X1319403D01*
Y98764D01*
X1319503D01*
Y98963D01*
X1319602D01*
Y99162D01*
X1319702D01*
Y99261D01*
X1319801D01*
Y99560D01*
X1319901D01*
Y99659D01*
X1320000D01*
Y99858D01*
X1320099D01*
Y100057D01*
X1320199D01*
Y100256D01*
X1320298D01*
Y100454D01*
X1320398D01*
Y100653D01*
X1320497D01*
Y100852D01*
X1320597D01*
Y101051D01*
X1320696D01*
Y101250D01*
X1320795D01*
Y101449D01*
X1320895D01*
Y101648D01*
X1320994D01*
Y101846D01*
X1321094D01*
Y102045D01*
X1321193D01*
Y102244D01*
X1321293D01*
Y102443D01*
X1321392D01*
Y102543D01*
X1321491D01*
Y102841D01*
X1321591D01*
Y102940D01*
X1321690D01*
Y103239D01*
X1321790D01*
Y103437D01*
X1321889D01*
Y103537D01*
X1321988D01*
Y103835D01*
X1322088D01*
Y104034D01*
X1322187D01*
Y104233D01*
X1322287D01*
Y104432D01*
X1322386D01*
Y104630D01*
X1322486D01*
Y104829D01*
X1322585D01*
Y105028D01*
X1322685D01*
Y105327D01*
X1322784D01*
Y105426D01*
X1322883D01*
Y105625D01*
X1322983D01*
Y105923D01*
X1323082D01*
Y106023D01*
X1323182D01*
Y106321D01*
X1323281D01*
Y106520D01*
X1323381D01*
Y106818D01*
X1323480D01*
Y106917D01*
X1323580D01*
Y107116D01*
X1323679D01*
Y107415D01*
X1323778D01*
Y107514D01*
X1323878D01*
Y107912D01*
X1323977D01*
Y108011D01*
X1324077D01*
Y108310D01*
X1324176D01*
Y108509D01*
X1324275D01*
Y108707D01*
X1324375D01*
Y109006D01*
X1324474D01*
Y109105D01*
X1324574D01*
Y109503D01*
X1324673D01*
Y109702D01*
X1324773D01*
Y109900D01*
X1324872D01*
Y110199D01*
X1324971D01*
Y110298D01*
X1325071D01*
Y110696D01*
X1325170D01*
Y110795D01*
X1325270D01*
Y111094D01*
X1325369D01*
Y111392D01*
X1325469D01*
Y111591D01*
X1325568D01*
Y111889D01*
X1325667D01*
Y112088D01*
X1325767D01*
Y112486D01*
X1325866D01*
Y112685D01*
X1325966D01*
Y112983D01*
X1325866D01*
Y113082D01*
X1325568D01*
Y113182D01*
X1325270D01*
Y113281D01*
X1324872D01*
Y113381D01*
X1324474D01*
Y113480D01*
X1323977D01*
Y113579D01*
X1323679D01*
Y113679D01*
X1323182D01*
Y113778D01*
X1322784D01*
Y113878D01*
X1322386D01*
Y113977D01*
X1321790D01*
Y114077D01*
X1321392D01*
Y114176D01*
X1320795D01*
Y114275D01*
X1320398D01*
Y114375D01*
X1319801D01*
Y114474D01*
X1319304D01*
Y114574D01*
X1318906D01*
Y114673D01*
X1318111D01*
Y114773D01*
X1317614D01*
Y114872D01*
X1316719D01*
Y114972D01*
X1316122D01*
Y115071D01*
X1314631D01*
Y115170D01*
X1314034D01*
Y115071D01*
X1313040D01*
Y114972D01*
X1312642D01*
Y114872D01*
X1312344D01*
Y114773D01*
X1312145D01*
Y114673D01*
X1311846D01*
Y114574D01*
X1311747D01*
Y114474D01*
X1311548D01*
Y114375D01*
X1311349D01*
Y114275D01*
X1311250D01*
Y114176D01*
X1311051D01*
Y114077D01*
X1310952D01*
Y113977D01*
X1310753D01*
Y113878D01*
X1310653D01*
Y113778D01*
X1310554D01*
Y113679D01*
X1310355D01*
Y113579D01*
X1310256D01*
Y113480D01*
X1310057D01*
Y113381D01*
X1309957D01*
Y113281D01*
X1309858D01*
Y113182D01*
X1309758D01*
Y113082D01*
X1309659D01*
Y112983D01*
X1309559D01*
Y112883D01*
X1309460D01*
Y112784D01*
X1309361D01*
Y112685D01*
X1309162D01*
Y112585D01*
X1309062D01*
Y112486D01*
X1308963D01*
Y112386D01*
X1308864D01*
Y112287D01*
X1308764D01*
Y112088D01*
X1308665D01*
Y111989D01*
X1308565D01*
Y111889D01*
X1308466D01*
Y111790D01*
X1308366D01*
Y111591D01*
X1308267D01*
Y111491D01*
X1308168D01*
Y111392D01*
X1308068D01*
Y111293D01*
X1307969D01*
Y111094D01*
X1307869D01*
Y110795D01*
X1307770D01*
Y110596D01*
X1307670D01*
Y110298D01*
X1307571D01*
Y110199D01*
X1307472D01*
Y110099D01*
X1307372D01*
Y109900D01*
X1307273D01*
Y109801D01*
X1307173D01*
Y109702D01*
X1307074D01*
Y109602D01*
X1306974D01*
Y109503D01*
X1306875D01*
Y109403D01*
X1306676D01*
Y109304D01*
X1306577D01*
Y109205D01*
X1306278D01*
Y109105D01*
X1306079D01*
Y109006D01*
X1305781D01*
Y108906D01*
X1304688D01*
Y109006D01*
X1304389D01*
Y109105D01*
X1304190D01*
Y109205D01*
X1303892D01*
Y109304D01*
X1303792D01*
Y109403D01*
X1303594D01*
Y109503D01*
X1303494D01*
Y109602D01*
X1303395D01*
Y109702D01*
X1303295D01*
Y109801D01*
X1303196D01*
Y109900D01*
X1303096D01*
Y110000D01*
X1302997D01*
Y110099D01*
X1302898D01*
Y110298D01*
X1302798D01*
Y110497D01*
X1302699D01*
Y110696D01*
X1302599D01*
Y110994D01*
X1302500D01*
Y111491D01*
X1302400D01*
Y112088D01*
X1302500D01*
Y112386D01*
X1302599D01*
Y112685D01*
X1302699D01*
Y112983D01*
X1302798D01*
Y113082D01*
X1302898D01*
Y113281D01*
X1302997D01*
Y113381D01*
X1303096D01*
Y113480D01*
X1303196D01*
Y113679D01*
X1303395D01*
Y113778D01*
X1303494D01*
Y113878D01*
X1303594D01*
Y113977D01*
X1303693D01*
Y114077D01*
X1303792D01*
Y114275D01*
X1303892D01*
Y114375D01*
X1303991D01*
Y114474D01*
X1304091D01*
Y114673D01*
X1304190D01*
Y114872D01*
X1304290D01*
Y114972D01*
X1304389D01*
Y115170D01*
X1304489D01*
Y115270D01*
X1304588D01*
Y115469D01*
X1304688D01*
Y115568D01*
X1304787D01*
Y115668D01*
X1304886D01*
Y115866D01*
X1304986D01*
Y115966D01*
X1305085D01*
Y116065D01*
X1305185D01*
Y116165D01*
X1305284D01*
Y116363D01*
X1305483D01*
Y116562D01*
X1305582D01*
Y116662D01*
X1305682D01*
Y116761D01*
X1305781D01*
Y116861D01*
X1305881D01*
Y116960D01*
X1305980D01*
Y117059D01*
X1306079D01*
Y117159D01*
X1306179D01*
Y117258D01*
X1306278D01*
Y117358D01*
X1306378D01*
Y117457D01*
X1306477D01*
Y117557D01*
X1306676D01*
Y117656D01*
X1306775D01*
Y117756D01*
X1306875D01*
Y117855D01*
X1306974D01*
Y117955D01*
X1307173D01*
Y118054D01*
X1307273D01*
Y118153D01*
X1307472D01*
Y118253D01*
X1307670D01*
Y118352D01*
X1307770D01*
Y118452D01*
X1307969D01*
Y118551D01*
X1308068D01*
Y118651D01*
X1308267D01*
Y118750D01*
X1308366D01*
Y118849D01*
X1308466D01*
Y118949D01*
X1308764D01*
Y119048D01*
X1308963D01*
Y119148D01*
X1309261D01*
Y119247D01*
X1309460D01*
Y119346D01*
X1309659D01*
Y119446D01*
X1309957D01*
Y119545D01*
X1310156D01*
Y119645D01*
X1310454D01*
Y119744D01*
X1310653D01*
Y119844D01*
X1311051D01*
Y119943D01*
X1311449D01*
Y120042D01*
X1311747D01*
Y120142D01*
X1312244D01*
Y120241D01*
X1312741D01*
Y120341D01*
X1315327D01*
Y120241D01*
X1315923D01*
Y120142D01*
X1317116D01*
Y120042D01*
X1317614D01*
Y119943D01*
X1318409D01*
Y119844D01*
X1319105D01*
Y119744D01*
X1319503D01*
Y119645D01*
X1320199D01*
Y119545D01*
X1320597D01*
Y119446D01*
X1321293D01*
Y119346D01*
X1321690D01*
Y119247D01*
X1322187D01*
Y119148D01*
X1322883D01*
Y119048D01*
X1323281D01*
Y118949D01*
X1323878D01*
Y118849D01*
X1324275D01*
Y118750D01*
X1324673D01*
Y118651D01*
X1325170D01*
Y118551D01*
X1325469D01*
Y118452D01*
X1325866D01*
Y118352D01*
X1326065D01*
Y118253D01*
X1326463D01*
Y118153D01*
X1326761D01*
Y118054D01*
X1326960D01*
Y117955D01*
X1327258D01*
Y118054D01*
X1327358D01*
Y118153D01*
X1327457D01*
Y118849D01*
X1327557D01*
Y119148D01*
X1327656D01*
Y119744D01*
X1327756D01*
Y120241D01*
X1327855D01*
Y120739D01*
X1327954D01*
Y121534D01*
X1328054D01*
Y122031D01*
X1328153D01*
Y122827D01*
X1328253D01*
Y123324D01*
X1328352D01*
Y123920D01*
X1328451D01*
Y124716D01*
X1328551D01*
Y125014D01*
X1328650D01*
Y125710D01*
X1328750D01*
Y126008D01*
X1328849D01*
Y126605D01*
X1328949D01*
Y127102D01*
X1329048D01*
Y127401D01*
X1329148D01*
Y128097D01*
X1329247D01*
Y128395D01*
X1329347D01*
Y129091D01*
X1329446D01*
Y129488D01*
X1329545D01*
Y129886D01*
X1329645D01*
Y130682D01*
X1329744D01*
Y131179D01*
X1329844D01*
Y132074D01*
X1329943D01*
Y132571D01*
X1330043D01*
Y133565D01*
X1330142D01*
Y134361D01*
X1330241D01*
Y135057D01*
X1330341D01*
Y136150D01*
X1330440D01*
Y136747D01*
X1330540D01*
Y137741D01*
X1330639D01*
Y138338D01*
X1330739D01*
Y138835D01*
X1330838D01*
Y139531D01*
X1330937D01*
Y139929D01*
X1331037D01*
Y140724D01*
X1331136D01*
Y141023D01*
X1331236D01*
Y141619D01*
X1331335D01*
Y142017D01*
X1331434D01*
Y142415D01*
X1331534D01*
Y143011D01*
X1331633D01*
Y143310D01*
X1331733D01*
Y143906D01*
X1331832D01*
Y144304D01*
X1331932D01*
Y144900D01*
X1332031D01*
Y145597D01*
X1332131D01*
Y146094D01*
X1332230D01*
Y146889D01*
X1332330D01*
Y147287D01*
X1332429D01*
Y147883D01*
X1332528D01*
Y148281D01*
X1332628D01*
Y148579D01*
X1332727D01*
Y149077D01*
X1332827D01*
Y149375D01*
X1332926D01*
Y149773D01*
X1333026D01*
Y149872D01*
X1333125D01*
Y150071D01*
X1333224D01*
Y150369D01*
X1333324D01*
Y150469D01*
X1333423D01*
Y150568D01*
X1333523D01*
Y150667D01*
X1333622D01*
Y150767D01*
X1333721D01*
Y150866D01*
X1333821D01*
Y150966D01*
X1333920D01*
Y151065D01*
X1334020D01*
Y151165D01*
X1334119D01*
Y151264D01*
X1334219D01*
Y151363D01*
X1334417D01*
Y151463D01*
X1334517D01*
Y151562D01*
X1334716D01*
Y151662D01*
X1334915D01*
Y151761D01*
X1335113D01*
Y151861D01*
X1335412D01*
Y151960D01*
X1335611D01*
Y152060D01*
X1336009D01*
Y152159D01*
X1336406D01*
Y152259D01*
X1337599D01*
Y152159D01*
D02*
G37*
%LPC*%
G36*
X1356094Y108011D02*
X1355895D01*
Y107912D01*
X1355795D01*
Y107812D01*
X1355596D01*
Y107713D01*
X1355298D01*
Y107613D01*
X1355099D01*
Y107514D01*
X1354602D01*
Y107415D01*
X1354403D01*
Y107315D01*
X1354105D01*
Y107216D01*
X1353608D01*
Y107116D01*
X1353210D01*
Y107017D01*
X1352514D01*
Y106917D01*
X1352017D01*
Y106818D01*
X1351023D01*
Y106719D01*
X1350426D01*
Y106619D01*
X1350028D01*
Y106520D01*
X1349034D01*
Y106619D01*
X1348736D01*
Y106719D01*
X1348537D01*
Y106321D01*
X1348636D01*
Y105724D01*
X1348736D01*
Y105028D01*
X1348835D01*
Y104630D01*
X1348935D01*
Y103736D01*
X1349034D01*
Y103239D01*
X1349133D01*
Y102344D01*
X1349233D01*
Y101648D01*
X1349332D01*
Y101051D01*
X1349432D01*
Y100653D01*
X1349631D01*
Y100753D01*
X1349730D01*
Y100852D01*
X1349829D01*
Y100952D01*
X1349929D01*
Y101051D01*
X1350028D01*
Y101150D01*
X1350128D01*
Y101250D01*
X1350227D01*
Y101349D01*
X1350326D01*
Y101449D01*
X1350426D01*
Y101548D01*
X1350525D01*
Y101648D01*
X1350625D01*
Y101747D01*
X1350724D01*
Y101846D01*
X1350824D01*
Y101946D01*
X1350923D01*
Y102045D01*
X1351023D01*
Y102145D01*
X1351122D01*
Y102244D01*
X1351222D01*
Y102344D01*
X1351321D01*
Y102543D01*
X1351520D01*
Y102741D01*
X1351719D01*
Y102940D01*
X1351818D01*
Y103040D01*
X1351918D01*
Y103139D01*
X1352017D01*
Y103239D01*
X1352116D01*
Y103338D01*
X1352216D01*
Y103437D01*
X1352315D01*
Y103537D01*
X1352415D01*
Y103636D01*
X1352514D01*
Y103736D01*
X1352614D01*
Y103835D01*
X1352713D01*
Y104034D01*
X1352812D01*
Y104133D01*
X1352912D01*
Y104233D01*
X1353011D01*
Y104332D01*
X1353111D01*
Y104432D01*
X1353210D01*
Y104531D01*
X1353309D01*
Y104630D01*
X1353409D01*
Y104730D01*
X1353508D01*
Y104929D01*
X1353608D01*
Y105028D01*
X1353707D01*
Y105128D01*
X1353807D01*
Y105227D01*
X1353906D01*
Y105327D01*
X1354006D01*
Y105526D01*
X1354105D01*
Y105625D01*
X1354205D01*
Y105724D01*
X1354304D01*
Y105824D01*
X1354403D01*
Y105923D01*
X1354503D01*
Y106023D01*
X1354602D01*
Y106222D01*
X1354702D01*
Y106321D01*
X1354801D01*
Y106420D01*
X1354901D01*
Y106520D01*
X1355000D01*
Y106619D01*
X1355099D01*
Y106719D01*
X1355199D01*
Y106818D01*
X1355298D01*
Y106917D01*
X1355398D01*
Y107116D01*
X1355497D01*
Y107216D01*
X1355596D01*
Y107315D01*
X1355696D01*
Y107415D01*
X1355795D01*
Y107514D01*
X1355895D01*
Y107713D01*
X1356094D01*
Y108011D01*
D02*
G37*
G36*
X1336506Y143111D02*
X1336307D01*
Y142813D01*
X1336207D01*
Y142514D01*
X1336108D01*
Y142116D01*
X1336009D01*
Y141619D01*
X1335909D01*
Y141420D01*
X1335810D01*
Y140824D01*
X1335710D01*
Y140625D01*
X1335611D01*
Y140128D01*
X1335511D01*
Y139730D01*
X1335412D01*
Y139432D01*
X1335312D01*
Y138835D01*
X1335213D01*
Y138537D01*
X1335113D01*
Y137940D01*
X1335014D01*
Y137841D01*
Y137543D01*
X1334915D01*
Y137045D01*
X1334815D01*
Y136349D01*
X1334716D01*
Y135852D01*
X1334616D01*
Y134858D01*
X1334517D01*
Y134261D01*
X1334417D01*
Y133267D01*
X1334318D01*
Y132471D01*
X1334219D01*
Y131775D01*
X1334119D01*
Y130682D01*
X1334020D01*
Y130185D01*
X1333920D01*
Y129190D01*
X1333821D01*
Y128693D01*
X1333721D01*
Y128196D01*
X1333622D01*
Y127500D01*
X1333523D01*
Y127102D01*
X1333423D01*
Y126307D01*
X1333324D01*
Y125909D01*
X1333224D01*
Y125114D01*
X1333125D01*
Y124616D01*
X1333026D01*
Y124119D01*
X1332926D01*
Y123224D01*
X1332827D01*
Y122727D01*
X1332727D01*
Y121633D01*
X1332628D01*
Y121037D01*
X1332528D01*
Y120341D01*
X1332429D01*
Y119446D01*
X1332330D01*
Y118949D01*
X1332230D01*
Y118253D01*
X1332131D01*
Y117855D01*
X1332031D01*
Y117159D01*
X1331932D01*
Y116761D01*
X1331832D01*
Y116363D01*
X1331733D01*
Y116165D01*
X1331832D01*
Y116065D01*
X1331932D01*
Y115966D01*
X1332131D01*
Y115866D01*
X1332429D01*
Y115767D01*
X1332628D01*
Y115668D01*
X1332727D01*
Y115568D01*
X1333026D01*
Y115469D01*
X1333125D01*
Y115369D01*
X1333423D01*
Y115270D01*
X1333523D01*
Y115170D01*
X1333721D01*
Y115071D01*
X1333920D01*
Y114972D01*
X1334119D01*
Y114872D01*
X1334318D01*
Y114773D01*
X1334417D01*
Y114673D01*
X1334616D01*
Y114574D01*
X1334716D01*
Y114474D01*
X1334915D01*
Y114375D01*
X1335113D01*
Y114275D01*
X1335213D01*
Y114176D01*
X1335412D01*
Y114077D01*
X1335511D01*
Y113977D01*
X1335710D01*
Y113878D01*
X1335810D01*
Y113778D01*
X1335909D01*
Y113679D01*
X1336108D01*
Y113579D01*
X1336207D01*
Y113480D01*
X1336406D01*
Y113381D01*
X1336506D01*
Y113281D01*
X1336704D01*
Y113182D01*
X1336804D01*
Y113082D01*
X1337003D01*
Y112983D01*
X1337102D01*
Y112883D01*
X1337202D01*
Y112784D01*
X1337400D01*
Y112685D01*
X1337500D01*
Y112585D01*
X1337699D01*
Y112486D01*
X1337898D01*
Y112386D01*
X1337997D01*
Y112287D01*
X1338096D01*
Y112187D01*
X1338196D01*
Y112088D01*
X1338395D01*
Y111989D01*
X1338494D01*
Y111889D01*
X1338594D01*
Y111790D01*
X1338693D01*
Y111690D01*
X1338892D01*
Y111591D01*
X1338991D01*
Y111491D01*
X1339091D01*
Y111392D01*
X1339190D01*
Y111293D01*
X1339290D01*
Y111193D01*
X1339389D01*
Y111094D01*
X1339489D01*
Y110994D01*
X1339588D01*
Y110895D01*
X1339687D01*
Y110795D01*
X1339787D01*
Y110696D01*
X1339886D01*
Y110596D01*
X1339986D01*
Y110497D01*
X1340085D01*
Y110398D01*
X1340185D01*
Y110298D01*
X1340284D01*
Y110199D01*
X1340383D01*
Y110099D01*
X1340483D01*
Y110000D01*
X1340582D01*
Y109900D01*
X1340682D01*
Y109801D01*
X1340781D01*
Y109702D01*
X1340880D01*
Y109503D01*
X1340980D01*
Y109403D01*
X1341079D01*
Y109304D01*
X1341179D01*
Y109205D01*
X1341278D01*
Y109105D01*
X1341378D01*
Y109006D01*
X1341477D01*
Y108906D01*
X1341577D01*
Y108707D01*
X1341776D01*
Y108509D01*
X1341875D01*
Y108409D01*
X1341974D01*
Y108310D01*
X1342074D01*
Y108210D01*
X1342173D01*
Y108111D01*
X1342273D01*
Y108011D01*
X1342372D01*
Y107912D01*
X1342472D01*
Y107713D01*
X1342571D01*
Y107613D01*
X1342670D01*
Y107514D01*
X1342770D01*
Y107415D01*
X1342869D01*
Y107315D01*
X1342969D01*
Y107116D01*
X1343068D01*
Y107017D01*
X1343167D01*
Y106917D01*
X1343267D01*
Y106818D01*
X1343366D01*
Y106719D01*
X1343466D01*
Y106520D01*
X1343565D01*
Y106420D01*
X1343665D01*
Y106321D01*
X1343764D01*
Y106222D01*
X1343863D01*
Y106023D01*
X1343963D01*
Y105923D01*
X1344062D01*
Y105824D01*
X1344162D01*
Y105625D01*
X1344261D01*
Y105526D01*
X1344361D01*
Y105327D01*
X1344460D01*
Y105227D01*
X1344659D01*
Y105824D01*
X1344560D01*
Y106222D01*
X1344460D01*
Y106719D01*
X1344361D01*
Y107315D01*
X1344261D01*
Y107613D01*
X1344162D01*
Y108310D01*
X1344062D01*
Y108608D01*
X1343963D01*
Y109205D01*
X1343863D01*
Y109602D01*
X1343764D01*
Y110000D01*
X1343665D01*
Y110596D01*
X1343565D01*
Y110895D01*
X1343466D01*
Y111491D01*
X1343366D01*
Y111790D01*
X1343267D01*
Y112287D01*
X1343167D01*
Y112784D01*
X1343068D01*
Y113082D01*
X1342969D01*
Y113679D01*
X1342869D01*
Y113977D01*
X1342770D01*
Y114574D01*
X1342670D01*
Y114972D01*
X1342571D01*
Y115270D01*
X1342472D01*
Y115866D01*
X1342372D01*
Y116165D01*
X1342273D01*
Y116761D01*
X1342173D01*
Y117059D01*
X1342074D01*
Y117457D01*
X1341974D01*
Y117955D01*
X1341875D01*
Y118253D01*
X1341776D01*
Y118849D01*
X1341676D01*
Y119148D01*
X1341577D01*
Y119645D01*
X1341477D01*
Y120042D01*
X1341378D01*
Y120341D01*
X1341278D01*
Y120938D01*
X1341179D01*
Y121236D01*
X1341079D01*
Y121832D01*
X1340980D01*
Y122131D01*
X1340880D01*
Y122528D01*
X1340781D01*
Y123025D01*
X1340682D01*
Y123324D01*
X1340582D01*
Y123920D01*
X1340483D01*
Y124219D01*
X1340383D01*
Y124716D01*
X1340284D01*
Y125213D01*
X1340185D01*
Y125511D01*
X1340085D01*
Y126108D01*
X1339986D01*
Y126406D01*
X1339886D01*
Y127102D01*
X1339787D01*
Y127401D01*
X1339687D01*
Y127798D01*
X1339588D01*
Y128395D01*
X1339489D01*
Y128792D01*
X1339389D01*
Y129488D01*
X1339290D01*
Y129886D01*
X1339190D01*
Y130582D01*
X1339091D01*
Y130980D01*
X1338991D01*
Y131477D01*
X1338892D01*
Y132074D01*
X1338793D01*
Y132471D01*
X1338693D01*
Y133168D01*
X1338594D01*
Y133565D01*
X1338494D01*
Y134062D01*
X1338395D01*
Y134758D01*
X1338295D01*
Y135156D01*
X1338196D01*
Y135852D01*
X1338096D01*
Y136150D01*
X1337997D01*
Y136747D01*
X1337898D01*
Y137145D01*
X1337798D01*
Y137443D01*
X1337699D01*
Y138040D01*
X1337599D01*
Y138338D01*
X1337500D01*
Y138934D01*
X1337400D01*
Y139233D01*
X1337301D01*
Y139730D01*
X1337202D01*
Y140227D01*
X1337102D01*
Y140525D01*
X1337003D01*
Y141023D01*
X1336903D01*
Y141321D01*
X1336804D01*
Y141818D01*
X1336704D01*
Y142216D01*
X1336605D01*
Y142614D01*
X1336506D01*
Y143111D01*
D02*
G37*
G36*
X1346449Y90014D02*
X1346349D01*
Y89915D01*
X1346250D01*
Y89815D01*
X1346150D01*
Y89716D01*
X1346051D01*
Y89616D01*
X1345952D01*
Y89517D01*
X1345852D01*
Y89417D01*
X1345753D01*
Y89318D01*
X1345653D01*
Y89219D01*
X1345554D01*
Y89119D01*
X1345455D01*
Y89020D01*
X1345355D01*
Y88920D01*
X1345256D01*
Y88821D01*
X1345156D01*
Y88721D01*
X1345057D01*
Y88622D01*
X1344957D01*
Y88523D01*
X1344858D01*
Y88423D01*
X1344758D01*
Y88324D01*
X1344659D01*
Y88224D01*
X1344560D01*
Y88125D01*
X1344460D01*
Y88025D01*
X1344361D01*
Y87926D01*
X1344261D01*
Y87827D01*
X1344162D01*
Y87727D01*
X1344062D01*
Y87628D01*
X1343963D01*
Y87528D01*
X1343863D01*
Y87429D01*
X1343764D01*
Y87330D01*
X1343665D01*
Y87230D01*
X1343565D01*
Y87131D01*
X1343466D01*
Y87031D01*
X1343366D01*
Y86932D01*
X1343267D01*
Y86832D01*
X1343167D01*
Y86733D01*
X1343068D01*
Y86634D01*
X1342969D01*
Y86534D01*
X1342869D01*
Y86335D01*
X1342969D01*
Y86435D01*
X1343267D01*
Y86534D01*
X1343665D01*
Y86634D01*
X1343863D01*
Y86733D01*
X1344261D01*
Y86832D01*
X1344460D01*
Y86932D01*
X1344858D01*
Y87031D01*
X1345156D01*
Y87131D01*
X1345355D01*
Y87230D01*
X1345852D01*
Y87330D01*
X1346051D01*
Y87429D01*
X1346449D01*
Y87528D01*
X1346747D01*
Y87727D01*
X1346846D01*
Y88025D01*
X1346747D01*
Y88821D01*
X1346648D01*
Y89219D01*
X1346548D01*
Y89915D01*
X1346449D01*
Y90014D01*
D02*
G37*
%LPD*%
D18*
X1770000Y375000D02*
G03*
X1770000Y375000I-12500J0D01*
G01*
X732500Y512500D02*
G03*
X732500Y512500I-12500J0D01*
G01*
X1027500Y545000D02*
G03*
X1027500Y545000I-12500J0D01*
G01*
D19*
X1925000Y150000D02*
X2047500D01*
X2330000Y277500D02*
Y597500D01*
X1925000Y725000D02*
X2047500D01*
X1925000Y567500D02*
Y725000D01*
Y150000D02*
Y307500D01*
X430000Y737500D02*
X552500D01*
X147500Y290000D02*
Y610000D01*
X430000Y162500D02*
X552500D01*
Y320000D01*
Y580000D02*
Y737500D01*
X1215000Y300000D02*
Y600000D01*
Y300000D02*
X1285000D01*
Y600000D01*
X1215000D02*
X1285000D01*
D20*
X1783339Y849984D02*
X1750016D01*
X1766677D01*
Y766677D01*
X1750016Y750016D01*
X1733355D01*
X1716694Y766677D01*
X1883306Y750016D02*
X1816661D01*
X1883306Y816661D01*
Y833322D01*
X1866645Y849984D01*
X1833323D01*
X1816661Y833322D01*
X700000Y849984D02*
X666677D01*
X683339D01*
Y766677D01*
X666677Y750016D01*
X650016D01*
X633355Y766677D01*
X733323Y750016D02*
X766645D01*
X749984D01*
Y849984D01*
X733323Y833322D01*
X1583339Y233323D02*
X1566678Y249984D01*
X1533355D01*
X1516694Y233323D01*
Y166678D01*
X1533355Y150016D01*
X1566678D01*
X1583339Y166678D01*
X1683307Y150016D02*
X1616661D01*
X1683307Y216661D01*
Y233323D01*
X1666645Y249984D01*
X1633323D01*
X1616661Y233323D01*
X900000Y250823D02*
X883339Y267484D01*
X850016D01*
X833355Y250823D01*
Y184178D01*
X850016Y167516D01*
X883339D01*
X900000Y184178D01*
X933323Y167516D02*
X966645D01*
X949984D01*
Y267484D01*
X933323Y250823D01*
X1183355Y799984D02*
Y716678D01*
X1200016Y700016D01*
X1233339D01*
X1250000Y716678D01*
Y799984D01*
X1283323Y700016D02*
X1316645D01*
X1299984D01*
Y799984D01*
X1283323Y783323D01*
%TF.MD5,d96c5c9d2ad1636a577e535dfce175aa*%
M02*
