M48
;Layer_Color=9474304
;FILE_FORMAT=4:4
METRIC,LZ
;TYPE=PLATED
T01F00S00C0.2500
T02F00S00C0.8500
T03F00S00C0.8890
T04F00S00C0.9500
T05F00S00C1.0000
T07F00S00C1.0200
T08F00S00C1.3000
T09F00S00C1.5000
%
T01
X00482Y00198
X0045Y00239
X00545Y00163
X0058Y00192
X00333Y00171
X00316Y00208
X0022Y002105
X00198Y00198
X0022Y00165
X00235Y00166
X0021Y00134
Y00123
X00188Y00153
X00158Y0017
X00132Y00084
X0014Y00049
X00101Y00072
X00084Y00071
X00188Y00066
X00281Y0005
X00292Y00011
X00024Y00175
X00048Y00285
X00076Y00284
T02
X00315Y000274
Y001126
T03
X0038Y002223
Y002477
T04
X00175Y002223
Y002477
T05
X00055Y000323
Y000577
X000627Y00135
X000373
T07
X002246Y00075
X0025
X002754
T08
X006775Y000735
X007125
T09
X00529Y00037
X00599
X00564Y00113
X00364
Y00037
M30
