G04*
G04 #@! TF.GenerationSoftware,Altium Limited,Altium Designer,26.4.1 (12)*
G04*
G04 Layer_Color=16711935*
%FSLAX44Y44*%
%MOMM*%
G71*
G04*
G04 #@! TF.SameCoordinates,7D135099-CFF0-42BF-BC72-68251C758119*
G04*
G04*
G04 #@! TF.FilePolarity,Negative*
G04*
G01*
G75*
%ADD34C,1.6032*%
%ADD35R,1.6032X1.6032*%
%ADD36C,2.3000*%
%ADD37R,2.3000X2.3000*%
%ADD38C,1.5200*%
%ADD39R,1.5200X1.5200*%
%ADD40C,2.1032*%
%ADD41C,1.3500*%
%ADD42R,1.3500X1.3500*%
%ADD43C,2.0000*%
%ADD44R,1.4500X1.4500*%
%ADD45C,1.4500*%
%ADD46R,3.7032X1.7032*%
%ADD47R,1.7032X3.7032*%
%ADD48R,1.7032X4.2032*%
%ADD49C,2.0032*%
D34*
X380000Y247700D02*
D03*
D35*
Y222300D02*
D03*
D36*
X364000Y37000D02*
D03*
X529000D02*
D03*
X364000Y113000D02*
D03*
X564000D02*
D03*
D37*
X599000Y37000D02*
D03*
D38*
X224600Y75000D02*
D03*
X250000D02*
D03*
D39*
X275400D02*
D03*
D40*
X677500Y73500D02*
D03*
X712500D02*
D03*
D41*
X315000Y112600D02*
D03*
D42*
Y27400D02*
D03*
D43*
X55000Y57700D02*
D03*
Y32300D02*
D03*
D44*
X175000Y247700D02*
D03*
D45*
Y222300D02*
D03*
D46*
X630000Y262000D02*
D03*
D47*
X660000Y215000D02*
D03*
D48*
X600000D02*
D03*
D49*
X37300Y135000D02*
D03*
X62700D02*
D03*
M02*
