G04*
G04 #@! TF.GenerationSoftware,Altium Limited,Altium Designer,26.4.1 (12)*
G04*
G04 Layer_Color=8388736*
%FSLAX44Y44*%
%MOMM*%
G71*
G04*
G04 #@! TF.SameCoordinates,7D135099-CFF0-42BF-BC72-68251C758119*
G04*
G04*
G04 #@! TF.FilePolarity,Negative*
G04*
G01*
G75*
%ADD15R,1.4082X1.1061*%
%ADD18R,3.0000X1.8000*%
%ADD19R,1.6587X0.6268*%
G04:AMPARAMS|DCode=20|XSize=1.6587mm|YSize=0.6268mm|CornerRadius=0.3134mm|HoleSize=0mm|Usage=FLASHONLY|Rotation=0.000|XOffset=0mm|YOffset=0mm|HoleType=Round|Shape=RoundedRectangle|*
%AMROUNDEDRECTD20*
21,1,1.6587,0.0000,0,0,0.0*
21,1,1.0319,0.6268,0,0,0.0*
1,1,0.6268,0.5159,0.0000*
1,1,0.6268,-0.5159,0.0000*
1,1,0.6268,-0.5159,0.0000*
1,1,0.6268,0.5159,0.0000*
%
%ADD20ROUNDEDRECTD20*%
%ADD23R,1.3000X1.3000*%
%ADD24R,2.0000X1.3000*%
%ADD27R,4.0000X2.5000*%
G04:AMPARAMS|DCode=28|XSize=0.8032mm|YSize=1.6532mm|CornerRadius=0.1526mm|HoleSize=0mm|Usage=FLASHONLY|Rotation=90.000|XOffset=0mm|YOffset=0mm|HoleType=Round|Shape=RoundedRectangle|*
%AMROUNDEDRECTD28*
21,1,0.8032,1.3480,0,0,90.0*
21,1,0.4980,1.6532,0,0,90.0*
1,1,0.3052,0.6740,0.2490*
1,1,0.3052,0.6740,-0.2490*
1,1,0.3052,-0.6740,-0.2490*
1,1,0.3052,-0.6740,0.2490*
%
%ADD28ROUNDEDRECTD28*%
%ADD29R,1.6532X1.2532*%
%ADD30R,1.7532X1.6532*%
G04:AMPARAMS|DCode=31|XSize=0.6532mm|YSize=1.8032mm|CornerRadius=0.1511mm|HoleSize=0mm|Usage=FLASHONLY|Rotation=90.000|XOffset=0mm|YOffset=0mm|HoleType=Round|Shape=RoundedRectangle|*
%AMROUNDEDRECTD31*
21,1,0.6532,1.5010,0,0,90.0*
21,1,0.3510,1.8032,0,0,90.0*
1,1,0.3022,0.7505,0.1755*
1,1,0.3022,0.7505,-0.1755*
1,1,0.3022,-0.7505,-0.1755*
1,1,0.3022,-0.7505,0.1755*
%
%ADD31ROUNDEDRECTD31*%
%ADD32R,1.6532X1.7532*%
%ADD33R,1.7532X1.7032*%
%ADD34C,1.6032*%
%ADD35R,1.6032X1.6032*%
%ADD36C,2.3000*%
%ADD37R,2.3000X2.3000*%
%ADD38C,1.5200*%
%ADD39R,1.5200X1.5200*%
%ADD40C,2.1032*%
%ADD41C,1.3500*%
%ADD42R,1.3500X1.3500*%
%ADD43C,2.0000*%
%ADD44R,1.4500X1.4500*%
%ADD45C,1.4500*%
%ADD46R,3.7032X1.7032*%
%ADD47R,1.7032X3.7032*%
%ADD48R,1.7032X4.2032*%
%ADD49C,2.0032*%
D15*
X101000Y88239D02*
D03*
Y105761D02*
D03*
X120000Y26239D02*
D03*
Y43761D02*
D03*
D18*
X115000Y252250D02*
D03*
Y217750D02*
D03*
D19*
X255233Y194150D02*
D03*
D20*
Y175850D02*
D03*
X274767Y185000D02*
D03*
D23*
X61500Y267500D02*
D03*
X38500D02*
D03*
D24*
X50000Y212500D02*
D03*
D27*
X545000Y188500D02*
D03*
Y251500D02*
D03*
D28*
X186250Y98950D02*
D03*
Y111650D02*
D03*
Y124350D02*
D03*
Y137050D02*
D03*
X131750Y98950D02*
D03*
Y111650D02*
D03*
Y124350D02*
D03*
Y137050D02*
D03*
D29*
X257000Y224750D02*
D03*
Y243250D02*
D03*
X325000Y254250D02*
D03*
Y235750D02*
D03*
X225000Y244250D02*
D03*
Y225750D02*
D03*
D30*
X315000Y170750D02*
D03*
Y189250D02*
D03*
D31*
X226500Y153750D02*
D03*
Y147250D02*
D03*
Y140750D02*
D03*
Y134250D02*
D03*
Y127750D02*
D03*
Y121250D02*
D03*
Y114750D02*
D03*
Y108250D02*
D03*
X287500Y153750D02*
D03*
Y147250D02*
D03*
Y140750D02*
D03*
Y134250D02*
D03*
Y127750D02*
D03*
Y121250D02*
D03*
Y114750D02*
D03*
Y108250D02*
D03*
D32*
X194250Y180000D02*
D03*
X175750D02*
D03*
D33*
X480000Y244000D02*
D03*
Y226000D02*
D03*
D34*
X380000Y247700D02*
D03*
D35*
Y222300D02*
D03*
D36*
X364000Y37000D02*
D03*
X529000D02*
D03*
X364000Y113000D02*
D03*
X564000D02*
D03*
D37*
X599000Y37000D02*
D03*
D38*
X224600Y75000D02*
D03*
X250000D02*
D03*
D39*
X275400D02*
D03*
D40*
X677500Y73500D02*
D03*
X712500D02*
D03*
D41*
X315000Y112600D02*
D03*
D42*
Y27400D02*
D03*
D43*
X55000Y57700D02*
D03*
Y32300D02*
D03*
D44*
X175000Y247700D02*
D03*
D45*
Y222300D02*
D03*
D46*
X630000Y262000D02*
D03*
D47*
X660000Y215000D02*
D03*
D48*
X600000D02*
D03*
D49*
X37300Y135000D02*
D03*
X62700D02*
D03*
M02*
