G04*
G04 #@! TF.GenerationSoftware,Altium Limited,Altium Designer,26.4.1 (12)*
G04*
G04 Layer_Physical_Order=1*
G04 Layer_Color=255*
%FSLAX44Y44*%
%MOMM*%
G71*
G04*
G04 #@! TF.SameCoordinates,7D135099-CFF0-42BF-BC72-68251C758119*
G04*
G04*
G04 #@! TF.FilePolarity,Positive*
G04*
G01*
G75*
%ADD14C,0.2540*%
%ADD15R,1.4082X1.1061*%
G04:AMPARAMS|DCode=16|XSize=0.6mm|YSize=1.45mm|CornerRadius=0.051mm|HoleSize=0mm|Usage=FLASHONLY|Rotation=90.000|XOffset=0mm|YOffset=0mm|HoleType=Round|Shape=RoundedRectangle|*
%AMROUNDEDRECTD16*
21,1,0.6000,1.3480,0,0,90.0*
21,1,0.4980,1.4500,0,0,90.0*
1,1,0.1020,0.6740,0.2490*
1,1,0.1020,0.6740,-0.2490*
1,1,0.1020,-0.6740,-0.2490*
1,1,0.1020,-0.6740,0.2490*
%
%ADD16ROUNDEDRECTD16*%
%ADD17R,1.4500X1.0500*%
%ADD18R,3.0000X1.8000*%
%ADD19R,1.6587X0.6268*%
G04:AMPARAMS|DCode=20|XSize=1.6587mm|YSize=0.6268mm|CornerRadius=0.3134mm|HoleSize=0mm|Usage=FLASHONLY|Rotation=0.000|XOffset=0mm|YOffset=0mm|HoleType=Round|Shape=RoundedRectangle|*
%AMROUNDEDRECTD20*
21,1,1.6587,0.0000,0,0,0.0*
21,1,1.0319,0.6268,0,0,0.0*
1,1,0.6268,0.5159,0.0000*
1,1,0.6268,-0.5159,0.0000*
1,1,0.6268,-0.5159,0.0000*
1,1,0.6268,0.5159,0.0000*
%
%ADD20ROUNDEDRECTD20*%
%ADD21R,1.5500X1.4500*%
G04:AMPARAMS|DCode=22|XSize=0.45mm|YSize=1.6mm|CornerRadius=0.0495mm|HoleSize=0mm|Usage=FLASHONLY|Rotation=90.000|XOffset=0mm|YOffset=0mm|HoleType=Round|Shape=RoundedRectangle|*
%AMROUNDEDRECTD22*
21,1,0.4500,1.5010,0,0,90.0*
21,1,0.3510,1.6000,0,0,90.0*
1,1,0.0990,0.7505,0.1755*
1,1,0.0990,0.7505,-0.1755*
1,1,0.0990,-0.7505,-0.1755*
1,1,0.0990,-0.7505,0.1755*
%
%ADD22ROUNDEDRECTD22*%
%ADD23R,1.3000X1.3000*%
%ADD24R,2.0000X1.3000*%
%ADD25R,1.4500X1.5500*%
%ADD26R,1.5500X1.5000*%
%ADD27R,4.0000X2.5000*%
%ADD36C,2.3000*%
%ADD37R,2.3000X2.3000*%
%ADD38C,1.5200*%
%ADD39R,1.5200X1.5200*%
%ADD41C,1.3500*%
%ADD42R,1.3500X1.3500*%
%ADD43C,2.0000*%
%ADD44R,1.4500X1.4500*%
%ADD45C,1.4500*%
%ADD50C,1.0000*%
%ADD51C,2.0000*%
%ADD52C,1.4000*%
%ADD53R,1.4000X1.4000*%
%ADD54C,1.9000*%
%ADD55R,3.5000X1.5000*%
%ADD56R,1.5000X3.5000*%
%ADD57R,1.5000X4.0000*%
%ADD58C,1.8000*%
%ADD59C,0.7000*%
D14*
X48000Y277000D02*
Y285000D01*
X221112Y153750D02*
X226500D01*
X220133Y154730D02*
Y164867D01*
Y154730D02*
X221112Y153750D01*
X220000Y165000D02*
X220133Y164867D01*
X205730Y154758D02*
X213488Y147000D01*
X205730Y154758D02*
Y182242D01*
X242000Y218512D01*
X213488Y147000D02*
X223750D01*
X109950Y137050D02*
X131750D01*
X191000Y162000D02*
X202000Y151000D01*
Y109000D02*
Y151000D01*
X223750Y147000D02*
X224500Y146250D01*
X209000Y116000D02*
X209147Y116147D01*
X202000Y109000D02*
X213000Y98000D01*
X227000D01*
X209000Y116000D02*
X215770Y109230D01*
X209147Y116147D02*
Y122147D01*
X210000Y123000D01*
Y134000D02*
X215270Y128730D01*
X225520D01*
X226500Y127750D01*
X225520Y109230D02*
X226500Y108250D01*
X215770Y109230D02*
X225520D01*
X325000Y235750D02*
X327000D01*
X330980Y231770D01*
Y229770D02*
Y231770D01*
Y229770D02*
X342000Y218750D01*
Y157000D02*
Y218750D01*
X315000Y130000D02*
X342000Y157000D01*
X315000Y112600D02*
Y130000D01*
X62700Y135000D02*
X81000D01*
X101000Y115000D01*
Y105761D02*
Y115000D01*
X134761Y43761D02*
X140000Y49000D01*
X120000Y43761D02*
X134761D01*
X132000Y84000D02*
Y98700D01*
X131750Y98950D02*
X132000Y98700D01*
X188000Y66000D02*
X215600D01*
X235000Y174362D02*
X236488Y175850D01*
X235000Y166000D02*
Y174362D01*
X236488Y175850D02*
X255233D01*
X158000Y170000D02*
X158853Y170853D01*
Y175853D02*
X163000Y180000D01*
X158853Y170853D02*
Y175853D01*
X122952Y147952D02*
X137000Y162000D01*
X127500Y137050D02*
X131750D01*
X137000Y162000D02*
X191000D01*
X220000Y210500D02*
Y210838D01*
X225000Y215838D02*
Y225750D01*
X220000Y210838D02*
X225000Y215838D01*
X242000Y218512D02*
Y241762D01*
X315000Y189250D02*
X316000Y190250D01*
Y208000D01*
X585477Y196270D02*
X593770D01*
X581207Y192000D02*
X585477Y196270D01*
X580000Y192000D02*
X581207D01*
X279750Y107250D02*
X285500D01*
X250000Y77500D02*
X279750Y107250D01*
X227000Y98000D02*
X250000Y75000D01*
X482000Y198000D02*
Y199207D01*
X480000Y201207D02*
X482000Y199207D01*
X480000Y201207D02*
Y226000D01*
X593770Y196270D02*
X600000Y202500D01*
Y215000D01*
X545000Y163000D02*
Y188500D01*
X101000Y105761D02*
X102511D01*
X108400Y111650D01*
X131750D01*
X88000Y144000D02*
X107650Y124350D01*
X88000Y144000D02*
Y193000D01*
X107650Y124350D02*
X131750D01*
X101000Y72000D02*
Y88239D01*
X99000Y148000D02*
X109950Y137050D01*
X99000Y148000D02*
Y201750D01*
X115000Y217750D01*
X70000Y211000D02*
X88000Y193000D01*
X50000Y212500D02*
X51500Y211000D01*
X70000D01*
X163000Y180000D02*
X175750D01*
X188000Y138780D02*
Y153000D01*
X186250Y137050D02*
X186270D01*
X188000Y138780D01*
X122952Y141598D02*
X127500Y137050D01*
X122952Y141598D02*
Y147952D01*
X115332Y218082D02*
X119550Y222300D01*
X215600Y66000D02*
X224600Y75000D01*
X315000Y112600D02*
X315200Y112800D01*
X363800D01*
X364000Y113000D01*
X242000Y241762D02*
X243488Y243250D01*
X257000D01*
X255233Y194150D02*
X257000Y195917D01*
Y224750D01*
X296000Y191000D02*
Y217000D01*
X314750Y235750D01*
X290000Y185000D02*
X296000Y191000D01*
X198000Y196793D02*
Y198000D01*
X194250Y193043D02*
X198000Y196793D01*
X194250Y180000D02*
Y193043D01*
X175000Y247700D02*
X178450Y244250D01*
X225000D01*
X119550Y222300D02*
X175000D01*
X38500Y267500D02*
X48000Y277000D01*
X55000Y32300D02*
X59725D01*
X65785Y26239D01*
X120000D01*
X303500Y170750D02*
X315000D01*
X291735Y158985D02*
X303500Y170750D01*
X291735Y153730D02*
Y158985D01*
X290755Y152750D02*
X291735Y153730D01*
X285500Y152750D02*
X290755D01*
X274767Y185000D02*
X290000D01*
X314750Y235750D02*
X325000D01*
Y254250D02*
X371262D01*
X377812Y247700D01*
X380000D01*
X315250Y171000D02*
X333000D01*
X315000Y170750D02*
X315250Y171000D01*
D15*
X101000Y88239D02*
D03*
Y105761D02*
D03*
X120000Y26239D02*
D03*
Y43761D02*
D03*
D16*
X186250Y98950D02*
D03*
Y111650D02*
D03*
Y124350D02*
D03*
Y137050D02*
D03*
X131750Y98950D02*
D03*
Y111650D02*
D03*
Y124350D02*
D03*
Y137050D02*
D03*
D17*
X257000Y224750D02*
D03*
Y243250D02*
D03*
X325000Y254250D02*
D03*
Y235750D02*
D03*
X225000Y244250D02*
D03*
Y225750D02*
D03*
D18*
X115000Y252250D02*
D03*
Y217750D02*
D03*
D19*
X255233Y194150D02*
D03*
D20*
Y175850D02*
D03*
X274767Y185000D02*
D03*
D21*
X315000Y170750D02*
D03*
Y189250D02*
D03*
D22*
X226500Y153750D02*
D03*
Y147250D02*
D03*
Y140750D02*
D03*
Y134250D02*
D03*
Y127750D02*
D03*
Y121250D02*
D03*
Y114750D02*
D03*
Y108250D02*
D03*
X287500Y153750D02*
D03*
Y147250D02*
D03*
Y140750D02*
D03*
Y134250D02*
D03*
Y127750D02*
D03*
Y121250D02*
D03*
Y114750D02*
D03*
Y108250D02*
D03*
D23*
X61500Y267500D02*
D03*
X38500D02*
D03*
D24*
X50000Y212500D02*
D03*
D25*
X194250Y180000D02*
D03*
X175750D02*
D03*
D26*
X480000Y244000D02*
D03*
Y226000D02*
D03*
D27*
X545000Y188500D02*
D03*
Y251500D02*
D03*
D36*
X364000Y37000D02*
D03*
X529000D02*
D03*
X364000Y113000D02*
D03*
X564000D02*
D03*
D37*
X599000Y37000D02*
D03*
D38*
X224600Y75000D02*
D03*
X250000D02*
D03*
D39*
X275400D02*
D03*
D41*
X315000Y112600D02*
D03*
D42*
Y27400D02*
D03*
D43*
X55000Y57700D02*
D03*
Y32300D02*
D03*
D44*
X175000Y247700D02*
D03*
D45*
Y222300D02*
D03*
D50*
X292000Y11000D02*
X298600D01*
X315000Y27400D01*
X450000Y239000D02*
X450338D01*
X455338Y244000D01*
X480000D01*
X537500D02*
X545000Y251500D01*
X480000Y244000D02*
X537500D01*
X24000Y175000D02*
X37300Y161700D01*
Y135000D02*
Y161700D01*
X275400Y55600D02*
X281000Y50000D01*
X275400Y55600D02*
Y75000D01*
X61500Y267500D02*
Y281500D01*
X64000Y284000D02*
X76000D01*
X61500Y281500D02*
X64000Y284000D01*
X61500Y267500D02*
X93750D01*
X109000Y252250D01*
X115000D01*
X68300Y71000D02*
X84000D01*
X55000Y57700D02*
X68300Y71000D01*
D51*
X599000Y37000D02*
X641000D01*
X677500Y73500D01*
X712500D02*
X713000Y74000D01*
Y101284D01*
X701284Y113000D02*
X713000Y101284D01*
X564000Y113000D02*
X701284D01*
D52*
X380000Y247700D02*
D03*
D53*
Y222300D02*
D03*
D54*
X677500Y73500D02*
D03*
X712500D02*
D03*
D55*
X630000Y262000D02*
D03*
D56*
X660000Y215000D02*
D03*
D57*
X600000D02*
D03*
D58*
X37300Y135000D02*
D03*
X62700D02*
D03*
D59*
X48000Y285000D02*
D03*
X220000Y165000D02*
D03*
X210000Y123000D02*
D03*
Y134000D02*
D03*
X292000Y11000D02*
D03*
X140000Y49000D02*
D03*
X132000Y84000D02*
D03*
X188000Y66000D02*
D03*
X235000Y166000D02*
D03*
X158000Y170000D02*
D03*
X220000Y210500D02*
D03*
X316000Y208000D02*
D03*
X580000Y192000D02*
D03*
X450000Y239000D02*
D03*
X482000Y198000D02*
D03*
X545000Y163000D02*
D03*
X101000Y72000D02*
D03*
X188000Y153000D02*
D03*
X24000Y175000D02*
D03*
X281000Y50000D02*
D03*
X198000Y198000D02*
D03*
X76000Y284000D02*
D03*
X84000Y71000D02*
D03*
X333000Y171000D02*
D03*
M02*
