G04*
G04 #@! TF.GenerationSoftware,Altium Limited,Altium Designer,26.4.1 (12)*
G04*
G04 Layer_Color=65535*
%FSLAX44Y44*%
%MOMM*%
G71*
G04*
G04 #@! TF.SameCoordinates,7D135099-CFF0-42BF-BC72-68251C758119*
G04*
G04*
G04 #@! TF.FilePolarity,Positive*
G04*
G01*
G75*
%ADD10C,0.6000*%
%ADD11C,0.2500*%
%ADD12C,0.2000*%
%ADD13C,0.1500*%
%ADD14C,0.2540*%
D10*
X156000Y133000D02*
G03*
X156000Y133000I-3000J0D01*
G01*
X251500Y146500D02*
G03*
X251500Y146500I-3000J0D01*
G01*
D11*
X133000Y145550D02*
G03*
X133000Y145550I-1250J0D01*
G01*
X635750Y37750D02*
G03*
X635750Y37750I-1250J0D01*
G01*
X297250Y75000D02*
G03*
X297250Y75000I-1250J0D01*
G01*
X227750Y161500D02*
G03*
X227750Y161500I-1250J0D01*
G01*
X39500Y280250D02*
G03*
X39500Y280250I-1250J0D01*
G01*
X54750Y6500D02*
G03*
X54750Y6500I-1250J0D01*
G01*
X588250Y215000D02*
G03*
X588250Y215000I-1250J0D01*
G01*
D12*
X409500Y235000D02*
G03*
X409500Y235000I-29500J0D01*
G01*
X22593Y116259D02*
G03*
X22913Y115939I320J0D01*
G01*
D02*
G03*
X22593Y153597I27087J19061D01*
G01*
X112041Y82709D02*
Y111291D01*
X89959Y82709D02*
Y111291D01*
X143000Y93000D02*
X175000D01*
X143000Y143000D02*
X175000D01*
Y93000D02*
Y143000D01*
X143000Y93000D02*
Y143000D01*
X250750Y233000D02*
Y235000D01*
X263250Y233000D02*
Y235000D01*
X331250Y244000D02*
Y246000D01*
X318750Y244000D02*
Y246000D01*
X377460Y195420D02*
X382540D01*
X380000Y190340D02*
Y200500D01*
X382540Y195420D02*
X385080D01*
X374920D02*
X377460D01*
X335500Y140500D02*
X624500D01*
Y9500D02*
Y140500D01*
X335500Y9500D02*
X624500D01*
X335500D02*
Y140500D01*
X115000Y265750D02*
Y271750D01*
X112000Y268750D02*
X118000D01*
X130000Y230500D02*
Y239500D01*
X100000Y230500D02*
Y239500D01*
X289350Y61900D02*
Y88100D01*
X210650D02*
X289350D01*
X210650Y61900D02*
Y88100D01*
Y61900D02*
X289350D01*
X670199Y37171D02*
X684801D01*
X663553Y14933D02*
X691447D01*
X684801Y37171D02*
X691447Y14933D01*
X684801Y37171D02*
Y57396D01*
X691447Y14933D02*
Y44557D01*
X684801Y57396D02*
X691447Y44557D01*
X670199Y57396D02*
X684801D01*
X663553Y44557D02*
X691447D01*
X663553D02*
X670199Y57396D01*
Y37171D02*
Y57396D01*
X663553Y14933D02*
X670199Y37171D01*
X663553Y44557D02*
X663553Y14933D01*
X660000Y138500D02*
X730000D01*
X660000Y11500D02*
Y138500D01*
Y11500D02*
X730000D01*
X698553Y44557D02*
X698553Y14933D01*
X705199Y37171D01*
Y57396D01*
X698553Y44557D02*
X705199Y57396D01*
X698553Y44557D02*
X726447D01*
X705199Y57396D02*
X719801D01*
X698553Y14933D02*
X726447D01*
X705199Y37171D02*
X719801D01*
X660000Y60525D02*
X730000D01*
X660000Y98745D02*
X730000D01*
X736000Y72740D02*
Y124015D01*
X730000Y122661D02*
X736000Y124015D01*
X730000Y74012D02*
X736000Y72740D01*
X730000Y14876D02*
X736000Y13604D01*
X730000Y63524D02*
X736000Y64879D01*
Y13604D02*
Y64879D01*
X730000Y14876D02*
Y74012D01*
Y81931D02*
Y138500D01*
Y11500D02*
Y138500D01*
X719801Y57396D02*
X726447Y44557D01*
Y14933D02*
Y44557D01*
X719801Y37171D02*
Y57396D01*
Y37171D02*
X726447Y14933D01*
X302200Y57000D02*
X327800D01*
X315000Y96000D02*
Y101850D01*
Y38150D02*
Y44000D01*
X301500D02*
X328500D01*
Y96000D01*
X301500D02*
X328500D01*
X301500Y44000D02*
Y96000D01*
X267276Y199500D02*
X271500D01*
Y170500D02*
Y178116D01*
Y191884D02*
Y199500D01*
X267276Y170500D02*
X271500D01*
X231250Y234000D02*
Y236000D01*
X218750Y234000D02*
Y236000D01*
X238500Y105500D02*
Y156500D01*
X275500Y105500D02*
Y156500D01*
X238500D02*
X275500D01*
X238500Y105500D02*
X275500D01*
X63750Y213750D02*
X76250D01*
X23750D02*
X36250D01*
X23750D02*
Y266250D01*
X71750D02*
X76250D01*
X48750D02*
X51250D01*
X23750D02*
X28250D01*
X76250Y213750D02*
Y266250D01*
X131041Y20709D02*
Y49291D01*
X108959Y20709D02*
Y49291D01*
X159000Y259750D02*
X191000D01*
X593000Y170000D02*
X737000D01*
Y260000D01*
X593000Y170000D02*
Y191000D01*
X651500Y260000D02*
X737000D01*
X593000D02*
X608500D01*
X593000Y239000D02*
Y260000D01*
X22593Y116259D02*
Y153597D01*
X522000Y204750D02*
Y235250D01*
X568000Y204750D02*
Y235250D01*
X542000Y271500D02*
X548000D01*
X545000Y268500D02*
Y274500D01*
X635000Y65000D02*
Y73664D01*
X639332Y77996D01*
X643664Y73664D01*
Y65000D01*
Y71498D01*
X635000D01*
X647996Y65000D02*
X652328D01*
X650162D01*
Y77996D01*
X647996Y75830D01*
D13*
X83500Y45000D02*
G03*
X83500Y45000I-28500J0D01*
G01*
X205500Y235000D02*
G03*
X205500Y235000I-30500J0D01*
G01*
D14*
X215900Y184700D02*
Y173870D01*
X218066Y171704D01*
X222398D01*
X224564Y173870D01*
Y184700D01*
X237560Y171704D02*
X228896D01*
X237560Y180368D01*
Y182534D01*
X235394Y184700D01*
X231062D01*
X228896Y182534D01*
X147336Y85498D02*
Y74668D01*
X149502Y72502D01*
X153834D01*
X156000Y74668D01*
Y85498D01*
X160332Y72502D02*
X164664D01*
X162498D01*
Y85498D01*
X160332Y83332D01*
X247170Y258502D02*
Y271498D01*
X253668D01*
X255834Y269332D01*
Y265000D01*
X253668Y262834D01*
X247170D01*
X251502D02*
X255834Y258502D01*
X268830Y271498D02*
X264498Y269332D01*
X260166Y265000D01*
Y260668D01*
X262332Y258502D01*
X266664D01*
X268830Y260668D01*
Y262834D01*
X266664Y265000D01*
X260166D01*
X319170Y268502D02*
Y281498D01*
X325668D01*
X327834Y279332D01*
Y275000D01*
X325668Y272834D01*
X319170D01*
X323502D02*
X327834Y268502D01*
X340830Y281498D02*
X332166D01*
Y275000D01*
X336498Y277166D01*
X338664D01*
X340830Y275000D01*
Y270668D01*
X338664Y268502D01*
X334332D01*
X332166Y270668D01*
X217170Y259842D02*
Y272838D01*
X223668D01*
X225834Y270672D01*
Y266340D01*
X223668Y264174D01*
X217170D01*
X221502D02*
X225834Y259842D01*
X236664D02*
Y272838D01*
X230166Y266340D01*
X238830D01*
X64170Y86263D02*
Y99259D01*
X70668D01*
X72834Y97093D01*
Y92761D01*
X70668Y90595D01*
X64170D01*
X68502D02*
X72834Y86263D01*
X77166Y97093D02*
X79332Y99259D01*
X83664D01*
X85830Y97093D01*
Y94927D01*
X83664Y92761D01*
X81498D01*
X83664D01*
X85830Y90595D01*
Y88429D01*
X83664Y86263D01*
X79332D01*
X77166Y88429D01*
X110490Y60452D02*
Y73448D01*
X116988D01*
X119154Y71282D01*
Y66950D01*
X116988Y64784D01*
X110490D01*
X114822D02*
X119154Y60452D01*
X132150D02*
X123486D01*
X132150Y69116D01*
Y71282D01*
X129984Y73448D01*
X125652D01*
X123486Y71282D01*
X11336Y278502D02*
Y291498D01*
X17834D01*
X20000Y289332D01*
Y285000D01*
X17834Y282834D01*
X11336D01*
X15668D02*
X20000Y278502D01*
X24332D02*
X28664D01*
X26498D01*
Y291498D01*
X24332Y289332D01*
X280000Y210668D02*
Y219332D01*
X277834Y221498D01*
X273502D01*
X271336Y219332D01*
Y210668D01*
X273502Y208502D01*
X277834D01*
X275668Y212834D02*
X280000Y208502D01*
X277834D02*
X280000Y210668D01*
X284332Y208502D02*
X288664D01*
X286498D01*
Y221498D01*
X284332Y219332D01*
X34838Y178502D02*
Y191498D01*
X41336D01*
X43502Y189332D01*
Y185000D01*
X41336Y182834D01*
X34838D01*
X47834Y191498D02*
X56498D01*
X52166D01*
Y178502D01*
X60830D02*
X65162D01*
X62996D01*
Y191498D01*
X60830Y189332D01*
X186336Y73502D02*
Y86498D01*
X192834D01*
X195000Y84332D01*
Y80000D01*
X192834Y77834D01*
X186336D01*
X199332Y73502D02*
X203664D01*
X201498D01*
Y86498D01*
X199332Y84332D01*
X361174Y286498D02*
Y273502D01*
X369838D01*
X382834Y286498D02*
X374170D01*
Y273502D01*
X382834D01*
X374170Y280000D02*
X378502D01*
X387166Y286498D02*
Y273502D01*
X393664D01*
X395830Y275668D01*
Y284332D01*
X393664Y286498D01*
X387166D01*
X408826Y273502D02*
X400162D01*
X408826Y282166D01*
Y284332D01*
X406660Y286498D01*
X402328D01*
X400162Y284332D01*
X145034Y288078D02*
Y275082D01*
X153698D01*
X166694Y288078D02*
X158030D01*
Y275082D01*
X166694D01*
X158030Y281580D02*
X162362D01*
X171026Y288078D02*
Y275082D01*
X177523D01*
X179690Y277248D01*
Y285912D01*
X177523Y288078D01*
X171026D01*
X184021Y275082D02*
X188353D01*
X186187D01*
Y288078D01*
X184021Y285912D01*
X476336Y161498D02*
Y148502D01*
Y152834D01*
X485000Y161498D01*
X478502Y155000D01*
X485000Y148502D01*
X489332D02*
X493664D01*
X491498D01*
Y161498D01*
X489332Y159332D01*
X637834Y26498D02*
X633502D01*
X635668D01*
Y15668D01*
X633502Y13502D01*
X631336D01*
X629170Y15668D01*
X650830Y13502D02*
X642166D01*
X650830Y22166D01*
Y24332D01*
X648664Y26498D01*
X644332D01*
X642166Y24332D01*
X595658Y291380D02*
X591326D01*
X593492D01*
Y280550D01*
X591326Y278384D01*
X589160D01*
X586994Y280550D01*
X599990Y278384D02*
X604322D01*
X602156D01*
Y291380D01*
X599990Y289214D01*
X19838Y91498D02*
Y78502D01*
X26336D01*
X28502Y80668D01*
Y89332D01*
X26336Y91498D01*
X19838D01*
X41498Y89332D02*
X39332Y91498D01*
X35000D01*
X32834Y89332D01*
Y87166D01*
X35000Y85000D01*
X39332D01*
X41498Y82834D01*
Y80668D01*
X39332Y78502D01*
X35000D01*
X32834Y80668D01*
X45830Y78502D02*
X50162D01*
X47996D01*
Y91498D01*
X45830Y89332D01*
X276336Y31498D02*
Y18502D01*
X282834D01*
X285000Y20668D01*
Y29332D01*
X282834Y31498D01*
X276336D01*
X289332Y18502D02*
X293664D01*
X291498D01*
Y31498D01*
X289332Y29332D01*
X312834Y154332D02*
X310668Y156498D01*
X306336D01*
X304170Y154332D01*
Y145668D01*
X306336Y143502D01*
X310668D01*
X312834Y145668D01*
X325830Y156498D02*
X317166D01*
Y150000D01*
X321498Y152166D01*
X323664D01*
X325830Y150000D01*
Y145668D01*
X323664Y143502D01*
X319332D01*
X317166Y145668D01*
X112834Y289332D02*
X110668Y291498D01*
X106336D01*
X104170Y289332D01*
Y280668D01*
X106336Y278502D01*
X110668D01*
X112834Y280668D01*
X123664Y278502D02*
Y291498D01*
X117166Y285000D01*
X125830D01*
X146834Y191332D02*
X144668Y193498D01*
X140336D01*
X138170Y191332D01*
Y182668D01*
X140336Y180502D01*
X144668D01*
X146834Y182668D01*
X151166Y191332D02*
X153332Y193498D01*
X157664D01*
X159830Y191332D01*
Y189166D01*
X157664Y187000D01*
X155498D01*
X157664D01*
X159830Y184834D01*
Y182668D01*
X157664Y180502D01*
X153332D01*
X151166Y182668D01*
X542834Y289332D02*
X540668Y291498D01*
X536336D01*
X534170Y289332D01*
Y280668D01*
X536336Y278502D01*
X540668D01*
X542834Y280668D01*
X555830Y278502D02*
X547166D01*
X555830Y287166D01*
Y289332D01*
X553664Y291498D01*
X549332D01*
X547166Y289332D01*
X485000Y274332D02*
X482834Y276498D01*
X478502D01*
X476336Y274332D01*
Y265668D01*
X478502Y263502D01*
X482834D01*
X485000Y265668D01*
X489332Y263502D02*
X493664D01*
X491498D01*
Y276498D01*
X489332Y274332D01*
M02*
